<svg xmlns="http://www.w3.org/2000/svg" xmlns:xlink="http://www.w3.org/1999/xlink" xmlns:v="http://vecta.io" width="1102" height="338" viewBox="0 0 1102 338"><style><![CDATA[svg{stroke:#000;stroke-linecap:round;stroke-linejoin:round;fill:#fff;fill-rule:evenodd;font-family:Roboto;font-size:14px;text-anchor:middle}svg text{paint-order:stroke;white-space:pre}svg .Text\.cls{stroke:none}]]></style><defs><style>@import url("https://fonts.googleapis.com/css?family=Roboto:400,400i,700,700i");</style><linearGradient id="L00100100000aaff10010000387f100.grad" x1="0%" y1="0%" x2="100%" y2="100%"><stop offset="0%" stop-color="#00aaff" stop-opacity="1"/><stop offset="100%" stop-color="#00387f" stop-opacity="1"/></linearGradient><g id="thin.end"><path d="M 0 0 L 3 10 L -3 10 Z" stroke="none"/></g></defs><g transform="translate(185.5 111.5)"><path d="M 9.5 0 L 15 0 L 15 124.7015 L 19.5 124.701499938965" fill="none" fill-opacity="0.14" stroke="#000"/><use class="BeginArrow.cls" fill="#000" transform="scale(1) rotate(270 0 0)" x="0" xlink:href="#thin.end" y="0"/><use class="EndArrow.cls" fill="#000" transform="scale(1) rotate(90 29 124.701499938965)" x="29" xlink:href="#thin.end" y="124.701499938965"/></g><g transform="translate(0.5 1.5)"><g ><g><rect fill="#ffe6cc" height="330" stroke="#000" width="185" x="0" y="0"/></g><g transform="translate(15.8939 85)"><g ><g transform="translate(19.0675 99.5908)"><path d="M 0 22.1304 L 2.5434 0 L 113.1348 0 L 111.8651 22.1304 L 0.0038 22.1304 Z M 109.3175 50.4019 L 109.3175 44.2533 L 123.3017 24.5832 L 123.3017 36.8765 L 109.3175 50.4019 Z" fill="#126d99" stroke="#ffffff" stroke-linecap="square" stroke-linejoin="miter" stroke-width="0.7878"/></g><g transform="translate(0 18.446)"><path d="M 128.3849 125.4055 L 128.3849 131.5542 L 0 131.5542 L 0 125.4055 L 128.3849 125.4055 Z M 20.3412 0 L 130.9326 0 L 130.9326 81.1447 L 20.3412 81.1447 L 20.3412 0 Z" fill="#126d99" stroke="#ffffff" stroke-linecap="square" stroke-linejoin="miter" stroke-width="0.7878"/></g><g transform="translate(0 0.004)"><path d="M 130.9326 99.5867 L 150.0001 81.1447 L 150.0001 0 L 130.9326 18.442 L 130.9326 99.5867 Z M 128.3849 143.8475 L 0 143.8475 L 15.254 124.1774 L 142.3692 124.1774 L 128.3849 143.8475 Z" fill="#126d99" stroke="#ffffff" stroke-linecap="square" stroke-linejoin="miter" stroke-width="0.7878"/></g><g transform="translate(130.9326 81.1413)"><path d="M 0 43.0326 L 0 17.2139 L 19.0675 0 L 19.0675 24.5907 L 0 43.0326 Z" fill="#126d99" stroke="#ffffff" stroke-linecap="square" stroke-linejoin="miter" stroke-width="0.7878"/></g><g transform="translate(29.2221 27.0684)"><path d="M 8.8981 0 L 82.6242 0 C 87.7088 0 91.522 4.9178 91.522 8.6062 L 91.522 54.0953 C 91.522 59.0131 87.7088 62.7015 82.6242 62.7015 L 8.8981 62.7015 C 3.8135 62.7015 0 59.0131 0 54.0953 L 0 8.6062 C 0 4.9178 3.8135 0 8.8981 0 Z" stroke="none" stroke-linecap="square" stroke-linejoin="miter" stroke-width="0.3937"/></g><g transform="translate(20.3388 0)"><path d="M 129.6577 0 L 21.6096 0 L 0 18.4417 L 110.5905 18.4417 L 129.6577 0 Z" fill="#126d99" stroke="#ffffff" stroke-linecap="square" stroke-linejoin="miter" stroke-width="0.7875"/></g><g transform="translate(35.7275 37.2112)"><path d="M 26.544 4.6106 C 12.5614 2.1515 6.2059 9.5283 7.4772 14.4461 L 7.4772 15.6754 C -3.9633 16.9048 -0.1498 29.1994 4.9348 29.1994 C 3.6637 37.8055 16.3749 42.7233 22.7305 37.8055 L 22.7305 36.5759 C 25.273 45.1821 53.2382 45.1821 58.3228 40.2643 C 71.034 40.2643 76.1185 32.8878 73.5761 26.7404 C 78.661 25.511 78.661 16.9048 71.034 15.6754 L 72.305 14.4461 C 74.8475 9.5283 67.2209 3.3813 58.3228 4.6106 L 57.0514 4.6106 C 49.4247 -1.5369 29.0865 -1.5369 26.544 4.6106 Z" fill="#99e6ff" fill-opacity="1" stroke="none" stroke-linecap="square" stroke-linejoin="miter" stroke-width="0.3937"/><g class="Text.cls"><rect x="0" y="0" width="77.120018005371" height="43.587064435405" fill="none" stroke="none"/><text fill="#000000" fill-opacity="1" stroke="#ffffff" font-size="16px"><tspan x="38.560009002686" y="27.073531417847">Browser</tspan></text></g></g><g transform="translate(35.7275 37.2112)"><path d="M 26.544 4.6106 C 12.5614 2.1515 6.2059 9.5283 7.4772 14.4461 L 7.4772 15.6754 C -3.9633 16.9048 -0.1498 29.1994 4.9348 29.1994 C 3.6637 37.8055 16.3749 42.7233 22.7305 37.8055 L 22.7305 36.5759 C 25.273 45.1821 53.2382 45.1821 58.3228 40.2643 C 71.034 40.2643 76.1185 32.8878 73.5761 26.7404 C 78.661 25.511 78.661 16.9048 71.034 15.6754 L 72.305 14.4461 C 74.8475 9.5283 67.2209 3.3813 58.3228 4.6106 L 57.0514 4.6106 C 49.4247 -1.5369 29.0865 -1.5369 26.544 4.6106 Z" fill="none" stroke="#ffffff" stroke-linecap="square" stroke-linejoin="miter" stroke-width="0.7874"/></g></g></g><g transform="translate(15 295)"><rect fill="none" height="35" stroke="none" width="160" x="0" y="0"/><g class="Text.cls"><rect x="0" y="0" width="160" height="35" fill="none" stroke="none"/><text fill="#000000" fill-opacity="1" font-size="18px"><tspan x="80" y="23.44">User PC</tspan></text></g></g></g></g><g transform="translate(794.5 112.5)"><path d="M 9.5 0 L 11 0 L 11 120.1941 L 16.5 120.19409942627" fill="none" fill-opacity="0.14" stroke="#000"/><use class="BeginArrow.cls" fill="#000" transform="scale(1) rotate(270 0 0)" x="0" xlink:href="#thin.end" y="0"/><use class="EndArrow.cls" fill="#000" transform="scale(1) rotate(90 26 120.19409942627)" x="26" xlink:href="#thin.end" y="120.19409942627"/></g><g transform="translate(214.5 0.5)"><g ><g><rect fill="#65cd76" fill-opacity="0.21" height="330" stroke="#000" stroke-width="1" width="580" x="0" y="0"/></g><g transform="translate(276.2085 86.2078)"><path d="M 11.875 0 L 17.4283 0 L 17.4283 60.4155 L 29.95299911499 60.415500640869" fill="none" fill-opacity="1" stroke="#000" stroke-width="2"/><use class="BeginArrow.cls" fill="#000" transform="scale(1.25) rotate(270 0 0)" x="0" xlink:href="#thin.end" y="0"/><use class="EndArrow.cls" fill="#000" transform="scale(1.25) rotate(90 33.462399291992 48.332400512695)" x="33.462399291992" xlink:href="#thin.end" y="48.332400512695"/></g><g transform="translate(314.4885 19.4327)"><rect x="0" y="0" fill="#ffffff" fill-opacity="1" height="225.5673" stroke="url(#L00100100000aaff10010000387f100.grad)" stroke-width="3" width="240.5115"/></g><g transform="translate(360.199 116.2933)"><path d="M 58.4322 23.6935 L 55.9726 15.4283 L 47.361 15.9789 C 46.7458 14.8765 45.5152 13.7749 44.2862 12.6731 L 47.361 6.0601 L 38.7505 1.6534 L 33.829 7.1631 C 31.9845 6.6119 30.1389 6.6119 28.2944 6.6119 L 25.2184 0 L 15.9929 2.2034 L 17.2221 9.367 C 15.9929 9.918 14.7623 11.0198 13.532 11.5704 L 6.1508 8.8153 L 1.2303 16.5299 L 7.3813 20.9384 C 6.766 22.5902 6.766 24.2435 6.766 25.3451 L 0 28.1003 L 2.4608 36.3655 L 10.4572 35.8155 C 11.0712 37.4688 12.3017 38.5706 13.532 39.6722 L 10.4572 45.7341 L 19.0678 50.1408 L 23.9881 44.6307 C 25.8337 45.1823 27.063 45.1823 28.9086 45.1823 L 31.9845 51.2436 L 41.2101 49.0392 L 40.596 41.8756 C 41.8253 40.774 43.6709 40.224 44.9012 39.1207 L 52.2814 41.8756 L 57.2017 34.7137 L 51.0509 30.3054 C 51.6661 28.6518 51.6661 27.5502 51.6661 25.8969 L 58.4322 23.6935 Z M 35.0593 36.9171 C 28.2944 40.224 20.2981 37.4688 16.6079 31.407 C 12.9168 25.3451 15.9929 18.1832 22.7576 14.8765 C 29.5236 12.122 37.5201 14.3254 41.2101 20.3866 C 44.2862 26.4485 41.8253 34.1621 35.0593 36.9171 Z" fill="#0078d7" fill-opacity="1" stroke="none" stroke-width="1"/><g class="Text.cls"><rect x="0" y="0" width="58.432189941406" height="51.243569359413" fill="none" stroke="none"/><text fill="#000000" fill-opacity="1"><tspan x="29.216094970703" y="21.841784210205">C# </tspan><tspan x="29.216094970703" y="38.641784210205">Class 2</tspan></text></g></g><g transform="translate(419.2659 142.1228)"><path d="M 58.4322 23.6935 L 55.9726 15.4283 L 47.361 15.9789 C 46.7458 14.8765 45.5152 13.7749 44.2862 12.6731 L 47.361 6.0601 L 38.7505 1.6534 L 33.829 7.1631 C 31.9845 6.6119 30.1389 6.6119 28.2944 6.6119 L 25.2184 0 L 15.9929 2.2034 L 17.2221 9.367 C 15.9929 9.918 14.7623 11.0198 13.532 11.5704 L 6.1508 8.8153 L 1.2303 16.5299 L 7.3813 20.9384 C 6.766 22.5902 6.766 24.2435 6.766 25.3451 L 0 28.1003 L 2.4608 36.3655 L 10.4572 35.8155 C 11.0712 37.4688 12.3017 38.5706 13.532 39.6722 L 10.4572 45.7341 L 19.0678 50.1408 L 23.9881 44.6307 C 25.8337 45.1823 27.063 45.1823 28.9086 45.1823 L 31.9845 51.2436 L 41.2101 49.0392 L 40.596 41.8756 C 41.8253 40.774 43.6709 40.224 44.9012 39.1207 L 52.2814 41.8756 L 57.2017 34.7137 L 51.0509 30.3054 C 51.6661 28.6518 51.6661 27.5502 51.6661 25.8969 L 58.4322 23.6935 Z M 35.0593 36.9171 C 28.2944 40.224 20.2981 37.4688 16.6079 31.407 C 12.9168 25.3451 15.9929 18.1832 22.7576 14.8765 C 29.5236 12.122 37.5201 14.3254 41.2101 20.3866 C 44.2862 26.4485 41.8253 34.1621 35.0593 36.9171 Z" fill="#0078d7" fill-opacity="1" stroke="none" stroke-width="1"/><g class="Text.cls"><rect x="0" y="0" width="58.432189941406" height="51.243569359413" fill="none" stroke="none"/><text fill="#000000" fill-opacity="1"><tspan x="29.216094970703" y="21.841784210205">C# </tspan><tspan x="29.216094970703" y="38.641784210205">Class 3</tspan></text></g></g><g transform="translate(463.471 80.3524)"><path d="M 46.8675 0 L 5.488399982452 58.461200714111" fill="none" fill-opacity="1" stroke="#000" stroke-width="1"/><use class="EndArrow.cls" fill="#000" transform="scale(1) rotate(215.290990927501 0 66.215400695801)" x="0" xlink:href="#thin.end" y="66.215400695801"/></g><g transform="translate(346.1399 57.5899)"><path d="M 129.7798 0 L 127.3203 0 C 127.3203 0 119.324 0 110.7134 0 L 22.1425 0 C 9.8408 0 0 8.8164 0 19.8366 L 0 132.7931 C 0 143.8135 9.8408 152.6287 22.1425 152.6287 L 141.4663 152.6287 C 153.768 152.6287 163.6088 143.8135 163.6088 132.7931 L 163.6088 46.2852 L 163.6088 30.3054 L 129.7798 0 Z M 151.9237 132.7931 C 151.9237 137.7516 147.6173 141.6084 142.0816 141.6084 L 22.7576 141.6084 C 17.2221 141.6084 12.9168 137.7516 12.9168 132.7931 L 12.9168 19.8366 C 12.9168 14.8765 17.2221 11.0198 22.7576 11.0198 L 111.3287 11.0198 C 116.8644 11.0198 121.7848 11.0198 124.8607 11.0198 L 124.8607 35.8155 L 151.9237 35.8155 L 151.9237 132.7931 Z" fill="#0078d7" fill-opacity="1" stroke="none" stroke-width="1"/></g><g transform="translate(402.5415 74.0269)"><path d="M 33.829 7.1631 C 31.9845 6.6119 30.1389 6.6119 28.2933 6.6119 L 25.2184 0 L 15.9916 2.2045 L 17.2221 9.367 C 15.9916 9.918 14.7613 11.0198 13.532 11.5714 L 6.1508 8.8164 L 1.2303 16.5299 L 7.3813 20.9384 C 6.766 22.5917 6.766 24.2451 6.766 25.3468 L 0 28.1018 L 2.4595 36.3671 L 10.4561 35.8155 C 11.0712 37.4688 12.3017 38.5706 13.532 39.6722 L 10.4561 45.734 L 19.0677 50.142 L 23.9881 44.6319 C 25.8338 45.1823 27.063 45.1823 28.9086 45.1823 L 31.9845 51.2436 L 41.2101 49.0402 L 40.595 41.8773 C 41.8253 41.3256 43.6709 40.224 44.9001 39.1222 L 52.2814 41.8773 L 57.2017 34.7137 L 51.0509 30.3054 C 51.6662 28.6518 51.6662 27.5502 51.6662 25.8969 L 59.0474 23.1418 L 56.5866 14.8765 L 47.9761 15.4283 C 47.361 14.3265 46.1305 13.2247 44.9001 12.1214 L 47.9761 5.5101 L 39.3645 1.1018 L 33.829 7.1631 Z M 34.4441 36.9171 C 27.678 40.224 19.6828 37.4688 15.9916 31.407 C 12.3017 25.3468 15.3765 18.1832 22.1425 14.8765 C 28.9086 11.5714 36.9036 14.3265 40.595 20.3866 C 43.6709 26.4484 41.2101 34.1621 34.4441 36.9171 Z" fill="#0078d7" fill-opacity="1" stroke="none" stroke-width="1"/><g class="Text.cls"><rect x="0" y="0" width="59.047428131104" height="51.243569359413" fill="none" stroke="none"/><text fill="#000000" fill-opacity="1"><tspan x="29.523714065552" y="21.841784210205">C# </tspan><tspan x="29.523714065552" y="38.641784210205">Class 1</tspan></text></g></g><g transform="translate(499.2916 44.8709)"><ellipse cx="22.6569" cy="19.0786" fill="url(#L00100100000aaff10010000387f100.grad)" fill-opacity="1" rx="22.6569" ry="19.0786" stroke="url(#L00100100000aaff10010000387f100.grad)" stroke-width="1"/><g class="Text.cls"><rect x="0" y="0" width="45.3137550354" height="38.157183485765" fill="none" stroke="none"/><text fill="#ffffff" fill-opacity="1" stroke="#ffffff"><tspan x="22.6568775177" y="23.698592300415">Job</tspan></text></g></g><g transform="translate(338.9506 25.7923)"><path d="M 8.6541 19.0786 L 0 9.5393 L 8.6541 0 L 54.088 0 L 62.7421 9.5393 L 54.088 19.0786 Z" fill="#00bfff" fill-opacity="1" stroke-width="1"/><g class="Text.cls"><rect x="0" y="0" width="62.742156982422" height="70" fill="none" stroke="none"/><text fill="#ffffff" fill-opacity="1" font-size="16px"><tspan x="31.371078491211" y="18">M A S</tspan></text></g></g><g transform="translate(21.7542 19.4327)"><rect fill="#fffbcc" fill-opacity="1" height="225.5673" stroke="#ffb466" stroke-width="2" width="254.4543" x="0" y="0"/></g><g fill="#ffffff" fill-opacity="1" transform="translate(84.49636163522 44.870932225695)"><g ><g fill="#ffb466" fill-opacity="1" transform="translate(0 12.719060523939)"><g ><g><path d="M 48.799510663871 11.871080758808 L 48.799510663871 63.312621499548 L 0 63.312621499548 L 0 0 L 34.159608665269 0 L 34.159608665269 12.365725022584 L 48.799510663871 12.365725022584 L 48.799510663871 11.871080758808 Z" fill="#ffb466" fill-opacity="1" stroke="#0d6c9b" stroke-linecap="square" stroke-linejoin="miter" stroke-width="0.7879"/><g class="Text.cls"><rect x="0" y="0" width="48.799491882324" height="63.312622305063" fill="none" stroke="none"/><text fill="#000000" fill-opacity="1"><tspan x="24.399745941162" y="27.876311035156">R Page </tspan><tspan x="24.399745941162" y="44.676311035156">A</tspan></text></g></g><g transform="translate(34.159608665269 0)"><path d="M 0 0 L 14.639901998602 11.871080758808 Z" fill="#ffb466" fill-opacity="1" stroke="none" stroke-linecap="square" stroke-linejoin="miter" stroke-width="0.394"/></g><g transform="translate(34.159608665269 0)"><path d="M 1e-13 1e-13 L 14.639901998602 11.871080758808" fill="#ffb466" fill-opacity="1" stroke="#0d6c9b" stroke-linecap="square" stroke-linejoin="miter" stroke-width="0.7879"/></g></g></g><g fill="#ffb466" fill-opacity="1" transform="translate(27.885394828791 47.69647696477)"><g ><g><path d="M 48.799510663871 11.871080758808 L 48.799510663871 63.312621499548 L 0 63.312621499548 L 0 0 L 34.159608665269 0 L 34.159608665269 12.365725022584 L 48.799510663871 12.365725022584 L 48.799510663871 11.871080758808 Z" fill="#ffb466" fill-opacity="1" stroke="#0d6c9b" stroke-linecap="square" stroke-linejoin="miter" stroke-width="0.7879"/><g class="Text.cls"><rect x="0" y="0" width="48.799491882324" height="63.312622305063" fill="none" stroke="none"/><text fill="#000000" fill-opacity="1"><tspan x="24.399745941162" y="27.876311035156">R Page </tspan><tspan x="24.399745941162" y="44.676311035156">B</tspan></text></g></g><g transform="translate(34.159608665269 0)"><path d="M 0 0 L 14.639901998602 11.871080758808 Z" fill="#ffb466" fill-opacity="1" stroke="none" stroke-linecap="square" stroke-linejoin="miter" stroke-width="0.394"/></g><g transform="translate(34.159608665269 0)"><path d="M 1e-13 1e-13 L 14.639901998602 11.871080758808" fill="#ffb466" fill-opacity="1" stroke="#0d6c9b" stroke-linecap="square" stroke-linejoin="miter" stroke-width="0.7879"/></g></g></g><g fill="#ffb466" fill-opacity="1" transform="translate(52.285115303983 82.673893405601)"><g ><g><path d="M 48.799510663871 11.871080758808 L 48.799510663871 63.312621499548 L 0 63.312621499548 L 0 0 L 34.159608665269 0 L 34.159608665269 12.365725022584 L 48.799510663871 12.365725022584 L 48.799510663871 11.871080758808 Z" fill="#ffb466" fill-opacity="1" stroke="#0d6c9b" stroke-linecap="square" stroke-linejoin="miter" stroke-width="0.7879"/><g class="Text.cls"><rect x="0" y="0" width="48.799491882324" height="63.312622305063" fill="none" stroke="none"/><text fill="#000000" fill-opacity="1"><tspan x="24.399745941162" y="27.876311035156">R Page </tspan><tspan x="24.399745941162" y="44.676311035156">C</tspan></text></g></g><g transform="translate(34.159608665269 0)"><path d="M 0 0 L 14.639901998602 11.871080758808 Z" fill="#ffb466" fill-opacity="1" stroke="none" stroke-linecap="square" stroke-linejoin="miter" stroke-width="0.394"/></g><g transform="translate(34.159608665269 0)"><path d="M 1e-13 1e-13 L 14.639901998602 11.871080758808" fill="#ffb466" fill-opacity="1" stroke="#0d6c9b" stroke-linecap="square" stroke-linejoin="miter" stroke-width="0.7879"/></g></g></g><g fill="#fff266" fill-opacity="1" stroke="#c1c1c1" transform="translate(55.5038 0.0008)"><g ><g transform="translate(0 18.796291237579)"><path d="M 68.454597019413 19.145747425474 L 1.526487397079 19.145747425474 C 0.686914330037 19.145747425474 0 18.808310749774 0 18.395831616983 L 0 0.749852213189 C 0 0.3374366757 0.686914330037 0 1.526487397079 0 L 68.454597019413 0 C 69.294170086455 0 69.981084416492 0.3374366757 69.981084416492 0.749852213189 L 69.981084416492 18.395831616983 C 69.981084416492 18.808310749774 69.294170086455 19.145747425474 68.454597019413 19.145747425474 Z" fill="#fff266" fill-opacity="1" fill-rule="nonzero" stroke="#c1c1c1" stroke-linecap="butt" stroke-linejoin="miter" stroke-opacity="1" stroke-width="2.0833"/></g><g transform="translate(0 18.796291237579)"><path d="M 68.454597019413 19.145747425474 L 1.526487397079 19.145747425474 C 0.686914330037 19.145747425474 0 18.808310749774 0 18.395831616983 L 0 0.749852213189 C 0 0.3374366757 0.686914330037 0 1.526487397079 0 L 68.454597019413 0 C 69.294170086455 0 69.981084416492 0.3374366757 69.981084416492 0.749852213189 L 69.981084416492 18.395831616983 C 69.981084416492 18.808310749774 69.294170086455 19.145747425474 68.454597019413 19.145747425474 Z" fill="#fff266" fill-opacity="1" fill-rule="nonzero" stroke="#c1c1c1" stroke-linecap="butt" stroke-opacity="1" stroke-width="4.1667"/></g><g transform="translate(0.213742226404 18.62833604336)"><path d="M 67.932538129666 19.528845528455 L 1.747827569791 19.528845528455 C 0.783088334621 19.528845528455 0 19.144221138211 0 18.670308943089 L 0 0.858536585366 C 0 0.384687985547 0.783088334621 0 1.747827569791 0 L 67.932538129666 0 C 68.897277364836 0 69.680365699457 0.384687985547 69.680365699457 0.858536585366 L 69.680365699457 18.670308943089 C 69.680365699457 19.144221138211 68.897277364836 19.528845528455 67.932538129666 19.528845528455 Z" fill="#fff266" fill-opacity="1" fill-rule="nonzero" stroke="#c1c1c1" stroke-linecap="butt" stroke-opacity="1" stroke-width="4.1667"/></g><g transform="translate(0.557149404933 0)"><path d="M 0 28.407767299006 L 69.237685354033 28.407767299006 M 40.566834960508 22.378996205962 L 28.327343242019 22.378996205962 M 40.582130826101 32.129237217706 L 28.327343242019 32.129237217706 M 34.505173401329 0 L 34.505173401329 14.149509665763" fill="#fff266" fill-opacity="1" fill-rule="nonzero" stroke="#c1c1c1" stroke-opacity="1" stroke-width="4.1667"/><g class="Text.cls"><rect x="0" y="0" width="69.237693725187" height="32.129215240479" fill="none" stroke="none"/><text fill="#000000" fill-opacity="1" font-size="18px" stroke="#ffffff"><tspan x="34.618846893311" y="27.069215240479">Session</tspan></text></g></g><g transform="translate(25.6208747887 9.567213730804)"><path d="M 18.837008438343 0 L 9.464341829464 4.604045528455 M 1e-13 1e-13 L 9.372766581856 4.604045528455" fill="#fff266" fill-opacity="1" fill-rule="nonzero" stroke="#c1c1c1" stroke-opacity="1" stroke-width="4.1667"/></g></g></g></g></g><g transform="translate(122.1902 291.7317)"><rect fill="none" height="44.2683" stroke="none" stroke-width="1" width="343.7037" x="0" y="0"/><g class="Text.cls"><rect x="0" y="0" width="343.703674316406" height="44.268284841684" fill="none" stroke="none"/><text fill="#000000" fill-opacity="1" font-size="18px"><tspan x="171.851837158203" y="28.074141921997">Web &amp; Application Server</tspan></text></g></g><g transform="translate(35 215)"><rect fill="none" fill-opacity="1" height="28.6179" stroke="none" stroke-width="1" width="230.0545" x="0" y="0"/><g class="Text.cls"><rect x="0" y="0" width="230.054534912109" height="28.6178808359" fill="none" stroke="none"/><text fill="#000000" fill-opacity="1"><tspan x="115.027267456055" y="18.928940887451">ASP.NET Core Process</tspan></text></g></g><g transform="translate(407.0625 74.8855)"><path d="M 96.2959 0 L 8.188199996948 51.831199645996" fill="none" fill-opacity="1" stroke="#000"/><use class="EndArrow.cls" fill="#000" transform="scale(1) rotate(239.53292746275 0 56.648101806641)" x="0" xlink:href="#thin.end" y="56.648101806641"/></g><g transform="translate(459.1181 72.0949)"><path fill="none" d="M 8.829099655151 13.302399635315 L 42.3219 0" stroke="#000" fill-opacity="0.14"/><use class="BeginArrow.cls" x="0" y="16.809099197388" transform="scale(1) rotate(248.33837534983 0 16.809099197388)" fill="#000" xlink:href="#thin.end"/></g><g transform="translate(350 220)"><rect x="0" y="0" width="170" height="25" fill="none" stroke="none"/><g class="Text.cls"><rect x="0" y="0" width="170" height="25" fill="none" stroke="none"/><text fill="#000000" fill-opacity="1"><tspan x="85" y="17.12">MonaLisa Process</tspan></text></g></g></g></g><g transform="translate(820.5 0.5)"><g ><g transform="translate(28.3662 293.7133)"><rect fill="none" height="36.5555" stroke="none" stroke-width="1" width="232.61" x="0" y="0"/><g class="Text.cls"><rect x="0" y="0" width="232.609970092773" height="36.555540107681" fill="none" stroke="none"/><text fill="#000000" fill-opacity="1" font-size="18px"><tspan x="116.304985046387" y="24.217770996094">Database Server</tspan></text></g></g><g><rect fill="#fff" height="331" stroke="#000" stroke-width="1" width="280" x="0" y="0"/></g><g fill="#004d66" transform="translate(43.231328823529 45.866633333333)"><g ><g transform="translate(34.604260104494 27.940580888889)"><path d="M 91.730217132212 0 L 0 0 L 0 191.392825555556 L 91.730217132212 191.392825555556 Z" fill="#004d66" fill-opacity="1" stroke="none" stroke-linecap="square" stroke-linejoin="miter" stroke-width="0.3938"/></g><g transform="translate(34.604260104494 27.940580888889)"><path d="M 91.730217132212 0 L 0 0 L 0 191.392825555556 L 91.730217132212 191.392825555556" fill="#004d66" fill-opacity="1" stroke="#ffffff" stroke-linecap="square" stroke-linejoin="miter" stroke-width="0.7876"/></g><g transform="translate(34.604260104494 0)"><path d="M 91.730217132212 219.333406444444 L 121.806042669106 191.392825555556 L 121.806042669106 0 L 28.571721439765 0 L 0 27.940580888889 L 91.730217132212 27.940580888889 L 91.730217132212 219.333406444444 Z" fill="#004d66" fill-opacity="1" stroke="#ffffff" stroke-linecap="square" stroke-linejoin="miter" stroke-width="0.7876"/></g><g transform="translate(126.334477236706 0)"><path d="M 0 27.940580888889 L 30.075504695576 0 Z" fill="#004d66" fill-opacity="1" stroke="none" stroke-linecap="square" stroke-linejoin="miter" stroke-width="0.3938"/></g><g transform="translate(126.334477236706 0)"><path d="M 0 27.940580888889 L 30.075504695576 0" fill="#004d66" fill-opacity="1" stroke="#ffffff" stroke-linecap="square" stroke-linejoin="miter" stroke-width="0.7876"/></g><g transform="translate(42.122935752565 108.968163111111)"><path d="M 46.617361140494 6.984962444444 L 46.617361140494 0 L 0 0 L 0 6.984962444444 L 46.617361140494 6.984962444444 Z" fill="#004d66" fill-opacity="1" stroke="#ffffff" stroke-linecap="square" stroke-linejoin="miter" stroke-width="0.7876"/></g><g transform="translate(42.122935752565 121.541446444444)"><path d="M 46.617361140494 6.984962444444 L 46.617361140494 0 L 0 0 L 0 6.984962444444 L 46.617361140494 6.984962444444 Z" fill="#004d66" fill-opacity="1" stroke="#ffffff" stroke-linecap="square" stroke-linejoin="miter" stroke-width="0.7876"/></g><g transform="translate(42.122935752565 135.511736888889)"><path d="M 46.617361140494 5.587955333333 L 46.617361140494 0 L 0 0 L 0 5.587955333333 L 46.617361140494 5.587955333333 Z" fill="#004d66" fill-opacity="1" stroke="#ffffff" stroke-linecap="square" stroke-linejoin="miter" stroke-width="0.7876"/></g><g transform="translate(42.122935752565 148.085020222222)"><path d="M 46.617361140494 6.984962444444 L 46.617361140494 0 L 0 0 L 0 6.984962444444 L 46.617361140494 6.984962444444 Z" fill="#004d66" fill-opacity="1" stroke="#ffffff" stroke-linecap="square" stroke-linejoin="miter" stroke-width="0.7876"/></g><g transform="translate(42.122935752565 160.658303555556)"><path d="M 46.617361140494 6.984962444444 L 46.617361140494 0 L 0 0 L 0 6.984962444444 L 46.617361140494 6.984962444444 Z" fill="#004d66" fill-opacity="1" stroke="#ffffff" stroke-linecap="square" stroke-linejoin="miter" stroke-width="0.7876"/></g><g transform="translate(42.122935752565 174.628594)"><path d="M 46.617361140494 5.587955333333 L 46.617361140494 0 L 0 0 L 0 5.587955333333 L 46.617361140494 5.587955333333 Z" fill="#004d66" fill-opacity="1" stroke="#ffffff" stroke-linecap="square" stroke-linejoin="miter" stroke-width="0.7876"/></g><g transform="translate(42.122935752565 187.201877333333)"><path d="M 46.617361140494 6.984962444444 L 46.617361140494 0 L 0 0 L 0 6.984962444444 L 46.617361140494 6.984962444444 Z" fill="#004d66" fill-opacity="1" stroke="#ffffff" stroke-linecap="square" stroke-linejoin="miter" stroke-width="0.7876"/></g><g transform="translate(42.122935752565 199.775160666667)"><path d="M 46.617361140494 6.984962444444 L 46.617361140494 0 L 0 0 L 0 6.984962444444 L 46.617361140494 6.984962444444 Z" fill="#004d66" fill-opacity="1" stroke="#ffffff" stroke-linecap="square" stroke-linejoin="miter" stroke-width="0.7876"/></g><g transform="translate(0 50.316528888889)"><path d="M 94.736901330212 0 C 94.736901330212 8.381969555556 73.684256590165 16.764231555556 46.6165590372 16.764231555556 C 21.052724950376 16.764231555556 0 8.381969555556 0 0 L 0 37.719484444444 C 0 46.101454 21.052724950376 53.086416444444 46.6165590372 53.086416444444 C 73.684256590165 53.086416444444 94.736901330212 46.101454 94.736901330212 37.719484444444 Z" fill="#004d66" fill-opacity="1" stroke="none" stroke-linecap="square" stroke-linejoin="miter" stroke-width="0.3938"/></g><g transform="translate(0 50.316528888889)"><path d="M 94.736901330212 0 C 94.736901330212 8.381969555556 73.684256590165 16.764231555556 46.6165590372 16.764231555556 C 21.052724950376 16.764231555556 0 8.381969555556 0 0 L 0 37.719484444444 C 0 46.101454 21.052724950376 53.086416444444 46.6165590372 53.086416444444 C 73.684256590165 53.086416444444 94.736901330212 46.101454 94.736901330212 37.719484444444 Z" fill="#004d66" fill-opacity="1" stroke="#ffffff" stroke-linecap="square" stroke-linejoin="miter" stroke-width="0.7876"/></g><g transform="translate(0 33.552297333333)"><path d="M 46.6165590372 33.528170666667 C 73.684256590165 33.528170666667 94.736901330212 25.146201111111 94.736901330212 16.764231555556 C 94.736901330212 8.381969555556 73.684256590165 0 46.6165590372 0 C 21.052724950376 0 0 8.381969555556 0 16.764231555556 C 0 25.146201111111 21.052724950376 33.528170666667 46.6165590372 33.528170666667 Z" fill="#004d66" fill-opacity="1" stroke="none" stroke-linecap="square" stroke-linejoin="miter" stroke-width="0.3938"/></g><g transform="translate(0 33.552297333333)"><path d="M 46.6165590372 33.528170666667 C 73.684256590165 33.528170666667 94.736901330212 25.146201111111 94.736901330212 16.764231555556 C 94.736901330212 8.381969555556 73.684256590165 0 46.6165590372 0 C 21.052724950376 0 0 8.381969555556 0 16.764231555556 C 0 25.146201111111 21.052724950376 33.528170666667 46.6165590372 33.528170666667 Z" fill="#004d66" fill-opacity="1" stroke="#ffffff" stroke-linecap="square" stroke-linejoin="miter" stroke-width="0.7876"/></g><g transform="translate(51.127828594306 83.845065111111)"><path d="M 93.233198284729 0 C 93.233198284729 8.381969555556 72.180473334353 16.764231555556 46.6165590372 16.764231555556 C 21.052724950376 16.764231555556 0 8.381969555556 0 0 L 0 37.719484444444 C 0 46.101454 21.052724950376 53.086416444444 46.6165590372 53.086416444444 C 72.180473334353 53.086416444444 93.233198284729 46.101454 93.233198284729 37.719484444444 Z" fill="#004d66" fill-opacity="1" stroke="none" stroke-linecap="square" stroke-linejoin="miter" stroke-width="0.3938"/></g><g transform="translate(51.127828594306 83.845065111111)"><path d="M 93.233198284729 0 C 93.233198284729 8.381969555556 72.180473334353 16.764231555556 46.6165590372 16.764231555556 C 21.052724950376 16.764231555556 0 8.381969555556 0 0 L 0 37.719484444444 C 0 46.101454 21.052724950376 53.086416444444 46.6165590372 53.086416444444 C 72.180473334353 53.086416444444 93.233198284729 46.101454 93.233198284729 37.719484444444 Z" fill="#004d66" fill-opacity="1" stroke="#ffffff" stroke-linecap="square" stroke-linejoin="miter" stroke-width="0.7876"/></g><g transform="translate(51.127828594306 67.080760444444)"><path d="M 46.6165590372 33.528170666667 C 72.180473334353 33.528170666667 93.233198284729 25.146201111111 93.233198284729 16.764231555556 C 93.233198284729 8.381969555556 72.180473334353 0 46.6165590372 0 C 21.052724950376 0 0 8.381969555556 0 16.764231555556 C 0 25.146201111111 21.052724950376 33.528170666667 46.6165590372 33.528170666667 Z" fill="#004d66" fill-opacity="1" stroke="none" stroke-linecap="square" stroke-linejoin="miter" stroke-width="0.3938"/></g><g transform="translate(51.127828594306 67.080760444444)"><path d="M 46.6165590372 33.528170666667 C 72.180473334353 33.528170666667 93.233198284729 25.146201111111 93.233198284729 16.764231555556 C 93.233198284729 8.381969555556 72.180473334353 0 46.6165590372 0 C 21.052724950376 0 0 8.381969555556 0 16.764231555556 C 0 25.146201111111 21.052724950376 33.528170666667 46.6165590372 33.528170666667 Z" fill="#004d66" fill-opacity="1" stroke="#ffffff" stroke-linecap="square" stroke-linejoin="miter" stroke-width="0.7876"/></g></g><g class="Text.cls"><rect x="0" y="0" width="156.41015625" height="219.333383434547" fill="none" stroke="none"/><text fill="#ffffff" fill-opacity="1" font-size="24px"><tspan x="78.205078125" y="117.586694641113">Database</tspan></text></g></g><g transform="translate(44 295)"><rect x="0" y="0" width="205" height="35" fill="none" stroke="none"/><g class="Text.cls"><rect x="0" y="0" width="205" height="35" fill="none" stroke="none"/><text fill="#000000" fill-opacity="1" font-size="16px"><tspan x="102.5" y="22.78">Database Server</tspan></text></g></g></g></g></svg>