<svg xmlns="http://www.w3.org/2000/svg" xmlns:xlink="http://www.w3.org/1999/xlink" xmlns:v="http://vecta.io" width="1107" height="337" viewBox="0 0 1107 337"><style><![CDATA[svg{stroke:#000;stroke-linecap:round;stroke-linejoin:round;fill:#fff;fill-rule:evenodd;font-family:Roboto;font-size:14px;text-anchor:middle}svg text{paint-order:stroke;white-space:pre}svg .Text\.cls{stroke:none}]]></style><defs><style>@import url("https://fonts.googleapis.com/css?family=Roboto:400,400i,700,700i");</style><linearGradient id="L00100100000aaff10010000387f100.grad" x1="0%" y1="0%" x2="100%" y2="100%"><stop offset="0%" stop-color="#00aaff" stop-opacity="1"/><stop offset="100%" stop-color="#00387f" stop-opacity="1"/></linearGradient><g id="thin.end"><path d="M 0 0 L 3 10 L -3 10 Z" stroke="none"/></g></defs><rect fill="#fff" height="329" stroke="#000" width="280" x="0" y="0" stroke-width="1" transform="translate(825.5 1.5)"/><g fill="#004d66" transform="translate(868.73132882353 45.366633333333)"><g ><g transform="translate(34.604260104494 27.940580888889)"><path d="M 91.730217132212 0 L 0 0 L 0 191.392825555556 L 91.730217132212 191.392825555556 Z" fill="#004d66" fill-opacity="1" stroke="none" stroke-linecap="square" stroke-linejoin="miter" stroke-width="0.3938"/></g><g transform="translate(34.604260104494 27.940580888889)"><path d="M 91.730217132212 0 L 0 0 L 0 191.392825555556 L 91.730217132212 191.392825555556" fill="#004d66" fill-opacity="1" stroke="#ffffff" stroke-linecap="square" stroke-linejoin="miter" stroke-width="0.7876"/></g><g transform="translate(34.604260104494 0)"><path d="M 91.730217132212 219.333406444444 L 121.806042669106 191.392825555556 L 121.806042669106 0 L 28.571721439765 0 L 0 27.940580888889 L 91.730217132212 27.940580888889 L 91.730217132212 219.333406444444 Z" fill="#004d66" fill-opacity="1" stroke="#ffffff" stroke-linecap="square" stroke-linejoin="miter" stroke-width="0.7876"/></g><g transform="translate(126.334477236706 0)"><path d="M 0 27.940580888889 L 30.075504695576 0 Z" fill="#004d66" fill-opacity="1" stroke="none" stroke-linecap="square" stroke-linejoin="miter" stroke-width="0.3938"/></g><g transform="translate(126.334477236706 0)"><path d="M 0 27.940580888889 L 30.075504695576 0" fill="#004d66" fill-opacity="1" stroke="#ffffff" stroke-linecap="square" stroke-linejoin="miter" stroke-width="0.7876"/></g><g transform="translate(42.122935752565 108.968163111111)"><path d="M 46.617361140494 6.984962444444 L 46.617361140494 0 L 0 0 L 0 6.984962444444 L 46.617361140494 6.984962444444 Z" fill="#004d66" fill-opacity="1" stroke="#ffffff" stroke-linecap="square" stroke-linejoin="miter" stroke-width="0.7876"/></g><g transform="translate(42.122935752565 121.541446444444)"><path d="M 46.617361140494 6.984962444444 L 46.617361140494 0 L 0 0 L 0 6.984962444444 L 46.617361140494 6.984962444444 Z" fill="#004d66" fill-opacity="1" stroke="#ffffff" stroke-linecap="square" stroke-linejoin="miter" stroke-width="0.7876"/></g><g transform="translate(42.122935752565 135.511736888889)"><path d="M 46.617361140494 5.587955333333 L 46.617361140494 0 L 0 0 L 0 5.587955333333 L 46.617361140494 5.587955333333 Z" fill="#004d66" fill-opacity="1" stroke="#ffffff" stroke-linecap="square" stroke-linejoin="miter" stroke-width="0.7876"/></g><g transform="translate(42.122935752565 148.085020222222)"><path d="M 46.617361140494 6.984962444444 L 46.617361140494 0 L 0 0 L 0 6.984962444444 L 46.617361140494 6.984962444444 Z" fill="#004d66" fill-opacity="1" stroke="#ffffff" stroke-linecap="square" stroke-linejoin="miter" stroke-width="0.7876"/></g><g transform="translate(42.122935752565 160.658303555556)"><path d="M 46.617361140494 6.984962444444 L 46.617361140494 0 L 0 0 L 0 6.984962444444 L 46.617361140494 6.984962444444 Z" fill="#004d66" fill-opacity="1" stroke="#ffffff" stroke-linecap="square" stroke-linejoin="miter" stroke-width="0.7876"/></g><g transform="translate(42.122935752565 174.628594)"><path d="M 46.617361140494 5.587955333333 L 46.617361140494 0 L 0 0 L 0 5.587955333333 L 46.617361140494 5.587955333333 Z" fill="#004d66" fill-opacity="1" stroke="#ffffff" stroke-linecap="square" stroke-linejoin="miter" stroke-width="0.7876"/></g><g transform="translate(42.122935752565 187.201877333333)"><path d="M 46.617361140494 6.984962444444 L 46.617361140494 0 L 0 0 L 0 6.984962444444 L 46.617361140494 6.984962444444 Z" fill="#004d66" fill-opacity="1" stroke="#ffffff" stroke-linecap="square" stroke-linejoin="miter" stroke-width="0.7876"/></g><g transform="translate(42.122935752565 199.775160666667)"><path d="M 46.617361140494 6.984962444444 L 46.617361140494 0 L 0 0 L 0 6.984962444444 L 46.617361140494 6.984962444444 Z" fill="#004d66" fill-opacity="1" stroke="#ffffff" stroke-linecap="square" stroke-linejoin="miter" stroke-width="0.7876"/></g><g transform="translate(0 50.316528888889)"><path d="M 94.736901330212 0 C 94.736901330212 8.381969555556 73.684256590165 16.764231555556 46.6165590372 16.764231555556 C 21.052724950376 16.764231555556 0 8.381969555556 0 0 L 0 37.719484444444 C 0 46.101454 21.052724950376 53.086416444444 46.6165590372 53.086416444444 C 73.684256590165 53.086416444444 94.736901330212 46.101454 94.736901330212 37.719484444444 Z" fill="#004d66" fill-opacity="1" stroke="none" stroke-linecap="square" stroke-linejoin="miter" stroke-width="0.3938"/></g><g transform="translate(0 50.316528888889)"><path d="M 94.736901330212 0 C 94.736901330212 8.381969555556 73.684256590165 16.764231555556 46.6165590372 16.764231555556 C 21.052724950376 16.764231555556 0 8.381969555556 0 0 L 0 37.719484444444 C 0 46.101454 21.052724950376 53.086416444444 46.6165590372 53.086416444444 C 73.684256590165 53.086416444444 94.736901330212 46.101454 94.736901330212 37.719484444444 Z" fill="#004d66" fill-opacity="1" stroke="#ffffff" stroke-linecap="square" stroke-linejoin="miter" stroke-width="0.7876"/></g><g transform="translate(0 33.552297333333)"><path d="M 46.6165590372 33.528170666667 C 73.684256590165 33.528170666667 94.736901330212 25.146201111111 94.736901330212 16.764231555556 C 94.736901330212 8.381969555556 73.684256590165 0 46.6165590372 0 C 21.052724950376 0 0 8.381969555556 0 16.764231555556 C 0 25.146201111111 21.052724950376 33.528170666667 46.6165590372 33.528170666667 Z" fill="#004d66" fill-opacity="1" stroke="none" stroke-linecap="square" stroke-linejoin="miter" stroke-width="0.3938"/></g><g transform="translate(0 33.552297333333)"><path d="M 46.6165590372 33.528170666667 C 73.684256590165 33.528170666667 94.736901330212 25.146201111111 94.736901330212 16.764231555556 C 94.736901330212 8.381969555556 73.684256590165 0 46.6165590372 0 C 21.052724950376 0 0 8.381969555556 0 16.764231555556 C 0 25.146201111111 21.052724950376 33.528170666667 46.6165590372 33.528170666667 Z" fill="#004d66" fill-opacity="1" stroke="#ffffff" stroke-linecap="square" stroke-linejoin="miter" stroke-width="0.7876"/></g><g transform="translate(51.127828594306 83.845065111111)"><path d="M 93.233198284729 0 C 93.233198284729 8.381969555556 72.180473334353 16.764231555556 46.6165590372 16.764231555556 C 21.052724950376 16.764231555556 0 8.381969555556 0 0 L 0 37.719484444444 C 0 46.101454 21.052724950376 53.086416444444 46.6165590372 53.086416444444 C 72.180473334353 53.086416444444 93.233198284729 46.101454 93.233198284729 37.719484444444 Z" fill="#004d66" fill-opacity="1" stroke="none" stroke-linecap="square" stroke-linejoin="miter" stroke-width="0.3938"/></g><g transform="translate(51.127828594306 83.845065111111)"><path d="M 93.233198284729 0 C 93.233198284729 8.381969555556 72.180473334353 16.764231555556 46.6165590372 16.764231555556 C 21.052724950376 16.764231555556 0 8.381969555556 0 0 L 0 37.719484444444 C 0 46.101454 21.052724950376 53.086416444444 46.6165590372 53.086416444444 C 72.180473334353 53.086416444444 93.233198284729 46.101454 93.233198284729 37.719484444444 Z" fill="#004d66" fill-opacity="1" stroke="#ffffff" stroke-linecap="square" stroke-linejoin="miter" stroke-width="0.7876"/></g><g transform="translate(51.127828594306 67.080760444444)"><path d="M 46.6165590372 33.528170666667 C 72.180473334353 33.528170666667 93.233198284729 25.146201111111 93.233198284729 16.764231555556 C 93.233198284729 8.381969555556 72.180473334353 0 46.6165590372 0 C 21.052724950376 0 0 8.381969555556 0 16.764231555556 C 0 25.146201111111 21.052724950376 33.528170666667 46.6165590372 33.528170666667 Z" fill="#004d66" fill-opacity="1" stroke="none" stroke-linecap="square" stroke-linejoin="miter" stroke-width="0.3938"/></g><g transform="translate(51.127828594306 67.080760444444)"><path d="M 46.6165590372 33.528170666667 C 72.180473334353 33.528170666667 93.233198284729 25.146201111111 93.233198284729 16.764231555556 C 93.233198284729 8.381969555556 72.180473334353 0 46.6165590372 0 C 21.052724950376 0 0 8.381969555556 0 16.764231555556 C 0 25.146201111111 21.052724950376 33.528170666667 46.6165590372 33.528170666667 Z" fill="#004d66" fill-opacity="1" stroke="#ffffff" stroke-linecap="square" stroke-linejoin="miter" stroke-width="0.7876"/></g></g><g class="Text.cls"><rect x="0" y="0" width="156.41015625" height="219.333383434547" fill="none" stroke="none"/><text fill="#ffffff" fill-opacity="1" font-size="24px"><tspan x="78.205078125" y="117.586694641113">Database</tspan></text></g></g><g transform="translate(848.8662 293.2133)"><rect fill="none" height="36.5555" stroke="none" width="232.61" x="0" y="0" stroke-width="1"/><g class="Text.cls"><rect x="0" y="0" width="232.609970092773" height="36.555540107681" fill="none" stroke="none"/><text fill="#000000" fill-opacity="1" font-size="18px"><tspan x="116.304985046387" y="24.217770996094">Database Server</tspan></text></g></g><g transform="translate(185.5 110.5)"><path fill="none" d="M 9.5 0 L 15 0 L 15 125 L 21.393899917603 125" stroke="#000" fill-opacity="0.14"/><use class="BeginArrow.cls" x="0" y="0" transform="scale(1) rotate(270 0 0)" fill="#000" xlink:href="#thin.end"/><use class="EndArrow.cls" x="30.893899917603" y="125" transform="scale(1) rotate(90 30.893899917603 125)" fill="#000" xlink:href="#thin.end"/></g><g transform="translate(0.5 0.5)"><g ><g><rect x="0" y="0" width="185" height="330" stroke="#000" fill="#ffe6cc"/></g><g transform="translate(15.8939 85)"><g ><g transform="translate(19.0675 99.5908)"><path d="M 0 22.1304 L 2.5434 0 L 113.1348 0 L 111.8651 22.1304 L 0.0038 22.1304 Z M 109.3175 50.4019 L 109.3175 44.2533 L 123.3017 24.5832 L 123.3017 36.8765 L 109.3175 50.4019 Z" fill="#126d99" stroke="#ffffff" stroke-linecap="square" stroke-linejoin="miter" stroke-width="0.7878"/></g><g transform="translate(0 18.446)"><path d="M 128.3849 125.4055 L 128.3849 131.5542 L 0 131.5542 L 0 125.4055 L 128.3849 125.4055 Z M 20.3412 0 L 130.9326 0 L 130.9326 81.1447 L 20.3412 81.1447 L 20.3412 0 Z" fill="#126d99" stroke="#ffffff" stroke-linecap="square" stroke-linejoin="miter" stroke-width="0.7878"/></g><g transform="translate(0 0.004)"><path d="M 130.9326 99.5867 L 150.0001 81.1447 L 150.0001 0 L 130.9326 18.442 L 130.9326 99.5867 Z M 128.3849 143.8475 L 0 143.8475 L 15.254 124.1774 L 142.3692 124.1774 L 128.3849 143.8475 Z" fill="#126d99" stroke="#ffffff" stroke-linecap="square" stroke-linejoin="miter" stroke-width="0.7878"/></g><g transform="translate(130.9326 81.1413)"><path d="M 0 43.0326 L 0 17.2139 L 19.0675 0 L 19.0675 24.5907 L 0 43.0326 Z" fill="#126d99" stroke="#ffffff" stroke-linecap="square" stroke-linejoin="miter" stroke-width="0.7878"/></g><g transform="translate(29.2221 27.0684)"><path d="M 8.8981 0 L 82.6242 0 C 87.7088 0 91.522 4.9178 91.522 8.6062 L 91.522 54.0953 C 91.522 59.0131 87.7088 62.7015 82.6242 62.7015 L 8.8981 62.7015 C 3.8135 62.7015 0 59.0131 0 54.0953 L 0 8.6062 C 0 4.9178 3.8135 0 8.8981 0 Z" stroke="none" stroke-linecap="square" stroke-linejoin="miter" stroke-width="0.3937"/></g><g transform="translate(20.3388 0)"><path d="M 129.6577 0 L 21.6096 0 L 0 18.4417 L 110.5905 18.4417 L 129.6577 0 Z" fill="#126d99" stroke="#ffffff" stroke-linecap="square" stroke-linejoin="miter" stroke-width="0.7875"/></g><g transform="translate(35.7275 37.2112)"><path d="M 26.544 4.6106 C 12.5614 2.1515 6.2059 9.5283 7.4772 14.4461 L 7.4772 15.6754 C -3.9633 16.9048 -0.1498 29.1994 4.9348 29.1994 C 3.6637 37.8055 16.3749 42.7233 22.7305 37.8055 L 22.7305 36.5759 C 25.273 45.1821 53.2382 45.1821 58.3228 40.2643 C 71.034 40.2643 76.1185 32.8878 73.5761 26.7404 C 78.661 25.511 78.661 16.9048 71.034 15.6754 L 72.305 14.4461 C 74.8475 9.5283 67.2209 3.3813 58.3228 4.6106 L 57.0514 4.6106 C 49.4247 -1.5369 29.0865 -1.5369 26.544 4.6106 Z" fill="#99e6ff" fill-opacity="1" stroke="none" stroke-linecap="square" stroke-linejoin="miter" stroke-width="0.3937"/><g class="Text.cls"><rect x="0" y="0" width="77.120018005371" height="43.587064435405" fill="none" stroke="none"/><text fill="#000000" fill-opacity="1" stroke="#ffffff" font-size="16px"><tspan x="38.560009002686" y="27.073531417847">Browser</tspan></text></g></g><g transform="translate(35.7275 37.2112)"><path d="M 26.544 4.6106 C 12.5614 2.1515 6.2059 9.5283 7.4772 14.4461 L 7.4772 15.6754 C -3.9633 16.9048 -0.1498 29.1994 4.9348 29.1994 C 3.6637 37.8055 16.3749 42.7233 22.7305 37.8055 L 22.7305 36.5759 C 25.273 45.1821 53.2382 45.1821 58.3228 40.2643 C 71.034 40.2643 76.1185 32.8878 73.5761 26.7404 C 78.661 25.511 78.661 16.9048 71.034 15.6754 L 72.305 14.4461 C 74.8475 9.5283 67.2209 3.3813 58.3228 4.6106 L 57.0514 4.6106 C 49.4247 -1.5369 29.0865 -1.5369 26.544 4.6106 Z" fill="none" stroke="#ffffff" stroke-linecap="square" stroke-linejoin="miter" stroke-width="0.7874"/></g></g></g><g transform="translate(15 295)"><rect x="0" y="0" width="160" height="35" fill="none" stroke="none"/><g class="Text.cls"><rect x="0" y="0" width="160" height="35" fill="none" stroke="none"/><text fill="#000000" fill-opacity="1" font-size="18px"><tspan x="80" y="23.44">User PC</tspan></text></g></g></g></g><g transform="translate(796.3939 112.1666)"><path fill="none" d="M 9.5 0 L 14.1061 0 L 14.1061 120.1245 L 19.606100082397 120.124496459961" stroke="#000" fill-opacity="0.14"/><use class="BeginArrow.cls" x="0" y="0" transform="scale(1) rotate(270 0 0)" fill="#000" xlink:href="#thin.end"/><use class="EndArrow.cls" x="29.106100082397" y="120.124496459961" transform="scale(1) rotate(90 29.106100082397 120.124496459961)" fill="#000" xlink:href="#thin.end"/></g><g transform="translate(216.3939 0.5)"><g ><g><rect height="330" stroke="#000" width="580" x="0" y="0" stroke-width="1" fill="#65cd76" fill-opacity="0.21"/></g><g transform="translate(180.201232543945 237.836559112549)"><rect fill="none" height="28.6178808359" stroke="none" width="230.054534912109" x="0" y="0" stroke-width="1" fill-opacity="1"/><g class="Text.cls"><rect x="0" y="0" width="230.054534912109" height="28.6178808359" fill="none" stroke="none"/><text fill="#000000" fill-opacity="1" font-size="18px"><tspan x="115.027267456055" y="20.248940887451">ASP.NET Core Process</tspan></text></g></g><g transform="translate(12.888888888889 12.073212195122)" fill="#ffffff" fill-opacity="1"><g ><g><rect fill="#009969" fill-opacity="0.5" height="257.561024357722" stroke="#000" width="554.222351074219" x="0" y="0" stroke-width="1"/></g><g transform="translate(6.971348707198 6.359530261969)" fill="#ffffff" fill-opacity="1"><g ><g transform="translate(254.454313738644 66.775067750678)"><path d="M 11.875 0 L 17.4283 0 L 17.4283 60.4155 L 29.95299911499 60.415500640869" fill="none" stroke="#000" stroke-width="2" fill-opacity="1"/><use class="BeginArrow.cls" fill="#000" transform="scale(1.25) rotate(270 0 0)" x="0" xlink:href="#thin.end" y="0"/><use class="EndArrow.cls" fill="#000" transform="scale(1.25) rotate(90 33.462399291992 48.332400512695)" x="33.462399291992" xlink:href="#thin.end" y="48.332400512695"/></g><g transform="translate(296.282320055905 0)" fill="#ffffff" fill-opacity="1"><g ><g><rect fill="#ffffff" height="197.145500300481" stroke="url(#L00100100000aaff10010000387f100.grad)" stroke-width="3" width="240.511459350586" x="0" y="0" fill-opacity="1"/></g><g transform="translate(68.612920251572 20.954143450768)"><path d="M 1e-13 1e-13 L 93.38939666748 17.62619972229" fill="none" stroke="#000" stroke-width="1" fill-opacity="1"/><use class="EndArrow.cls" fill="#000" transform="scale(1) rotate(100.688205167383 102.724563598633 19.388109207153)" x="102.724563598633" xlink:href="#thin.end" y="19.388109207153"/></g><g transform="translate(130.624391558351 52.662125383921)"><path d="M 42.322082012579 0 L 8.829099655151 13.302599906921" fill="none" stroke="#000" stroke-width="1" fill-opacity="1"/><use class="EndArrow.cls" fill="#000" transform="scale(1) rotate(248.33827789006 0 16.809255599976)" x="0" xlink:href="#thin.end" y="16.809255599976"/></g><g transform="translate(78.422514157932 54.056007226739)"><path d="M 95.861203522013 0 L 8.133199691772 52.953300476074" fill="none" stroke="#000" stroke-width="1" fill-opacity="1"/><use class="EndArrow.cls" fill="#000" transform="scale(1) rotate(238.884485579746 0 57.862567901611)" x="0" xlink:href="#thin.end" y="57.862567901611"/></g><g transform="translate(20.914046121593 6.359530261969)" fill="#ffffff" fill-opacity="1"><g ><g transform="translate(21.24839200559 90.501012466125)"><path d="M 58.432171740042 23.693511111111 L 55.972610202656 15.42828401084 L 47.361042571628 15.978892140921 C 46.745751334731 14.876531165312 45.515168860936 13.774933333333 44.286189797345 12.673144715447 L 47.361042571628 6.060123577236 L 38.75045092942 1.653350677507 L 33.829027309574 7.163056910569 C 31.984478155136 6.611876422764 30.138883298393 6.611876422764 28.294403857442 6.611876422764 L 25.218435667365 0 L 15.992901355695 2.203386449864 L 17.222089559748 9.367015718157 C 15.992901355695 9.918005420054 14.762318881901 11.01979403794 13.532015262055 11.570402168022 L 6.150751250874 8.815262872629 L 1.230303619846 16.529881842818 L 7.381264011181 20.938371815718 C 6.766042487771 22.590196205962 6.766042487771 24.243546883469 6.766042487771 25.345144715447 L 0 28.10028401084 L 2.460816380154 36.365511111111 L 10.457162487771 35.815475338753 C 11.071198881901 37.46882601626 12.301711642208 38.570614634146 13.532015262055 39.672212466125 L 10.457162487771 45.734053116531 L 19.067754129979 50.14082601626 L 23.988132047519 44.630738211382 C 25.833726904263 45.182300271003 27.062984821803 45.182300271003 28.908579678546 45.182300271003 L 31.984478155136 51.243568563686 L 41.210082180294 49.039228184282 L 40.596045786164 41.875598915989 C 41.825303703704 40.774001084011 43.670898560447 40.223965311653 44.901202180294 39.120650406504 L 52.281420489168 41.875598915989 L 57.201658979734 34.713686720867 L 51.050907728861 30.305387533875 C 51.666129252271 28.651846070461 51.666129252271 27.550248238482 51.666129252271 25.896897560976 L 58.432171740042 23.693511111111 Z M 35.05933092942 36.917073170732 C 28.294403857442 40.223965311653 20.298057749825 37.46882601626 16.607913738644 31.406985365854 C 12.916793738644 25.345144715447 15.992901355695 18.183232520325 22.757619287212 14.876531165312 C 29.523592061495 12.121964227642 37.520147309574 14.325350677507 41.210082180294 20.38661897019 C 44.286189797345 26.448459620596 41.825303703704 34.162124661247 35.05933092942 36.917073170732 Z" fill="#0078d7" stroke="none" stroke-width="1" fill-opacity="1"/><g class="Text.cls"><rect x="0" y="0" width="58.432189941406" height="51.243569359413" fill="none" stroke="none"/><text fill="#000000" fill-opacity="1"><tspan x="29.216094970703" y="21.841784210205">C# </tspan><tspan x="29.216094970703" y="38.641784210205">Class 2</tspan></text></g></g><g transform="translate(80.315305045423 116.330499006323)"><path d="M 58.432171740042 23.693511111111 L 55.972610202656 15.42828401084 L 47.361042571628 15.978892140921 C 46.745751334731 14.876531165312 45.515168860936 13.774933333333 44.286189797345 12.673144715447 L 47.361042571628 6.060123577236 L 38.75045092942 1.653350677507 L 33.829027309574 7.163056910569 C 31.984478155136 6.611876422764 30.138883298393 6.611876422764 28.294403857442 6.611876422764 L 25.218435667365 0 L 15.992901355695 2.203386449864 L 17.222089559748 9.367015718157 C 15.992901355695 9.918005420054 14.762318881901 11.01979403794 13.532015262055 11.570402168022 L 6.150751250874 8.815262872629 L 1.230303619846 16.529881842818 L 7.381264011181 20.938371815718 C 6.766042487771 22.590196205962 6.766042487771 24.243546883469 6.766042487771 25.345144715447 L 0 28.10028401084 L 2.460816380154 36.365511111111 L 10.457162487771 35.815475338753 C 11.071198881901 37.46882601626 12.301711642208 38.570614634146 13.532015262055 39.672212466125 L 10.457162487771 45.734053116531 L 19.067754129979 50.14082601626 L 23.988132047519 44.630738211382 C 25.833726904263 45.182300271003 27.062984821803 45.182300271003 28.908579678546 45.182300271003 L 31.984478155136 51.243568563686 L 41.210082180294 49.039228184282 L 40.596045786164 41.875598915989 C 41.825303703704 40.774001084011 43.670898560447 40.223965311653 44.901202180294 39.120650406504 L 52.281420489168 41.875598915989 L 57.201658979734 34.713686720867 L 51.050907728861 30.305387533875 C 51.666129252271 28.651846070461 51.666129252271 27.550248238482 51.666129252271 25.896897560976 L 58.432171740042 23.693511111111 Z M 35.05933092942 36.917073170732 C 28.294403857442 40.223965311653 20.298057749825 37.46882601626 16.607913738644 31.406985365854 C 12.916793738644 25.345144715447 15.992901355695 18.183232520325 22.757619287212 14.876531165312 C 29.523592061495 12.121964227642 37.520147309574 14.325350677507 41.210082180294 20.38661897019 C 44.286189797345 26.448459620596 41.825303703704 34.162124661247 35.05933092942 36.917073170732 Z" fill="#0078d7" stroke="none" stroke-width="1" fill-opacity="1"/><g class="Text.cls"><rect x="0" y="0" width="58.432189941406" height="51.243569359413" fill="none" stroke="none"/><text fill="#000000" fill-opacity="1"><tspan x="29.216094970703" y="21.841784210205">C# </tspan><tspan x="29.216094970703" y="38.641784210205">Class 3</tspan></text></g></g><g transform="translate(124.520503983228 54.560063595303)"><path d="M 46.867385157233 0 L 5.488399982452 58.461200714111" fill="none" stroke="#000" stroke-width="1" fill-opacity="1"/><use class="EndArrow.cls" fill="#000" transform="scale(1) rotate(215.29092107315 0 66.215400695801)" x="0" xlink:href="#thin.end" y="66.215400695801"/></g><g fill="#ffffff" fill-opacity="1"><g ><g transform="translate(7.189238211041 31.797651309846)"><path d="M 129.779834470283 0 L 127.320285159569 0 C 127.320285159569 0 119.323957642215 0 110.713387164307 0 L 22.142548559437 0 C 9.840828408608 0 0 8.816398782572 0 19.836568521993 L 0 132.79309701897 C 0 143.813454609131 9.840828408608 152.628726287263 22.142548559437 152.628726287263 L 141.466291412611 152.628726287263 C 153.76801156344 152.628726287263 163.608839972048 143.813454609131 163.608839972048 132.79309701897 L 163.608839972048 46.285248280175 L 163.608839972048 30.305396339379 L 129.779834470283 0 Z M 151.923671763966 132.79309701897 C 151.923671763966 137.751605153221 147.617258882546 141.608368697102 142.081554621111 141.608368697102 L 22.757596978896 141.608368697102 C 17.222107506503 141.608368697102 12.916768570288 137.751605153221 12.916768570288 132.79309701897 L 12.916768570288 19.836568521993 C 12.916768570288 14.876510619137 17.222107506503 11.01979403794 22.757596978896 11.01979403794 L 111.328704070068 11.01979403794 C 116.864354634242 11.01979403794 121.784795687176 11.01979403794 124.860682151596 11.01979403794 L 124.860682151596 35.815481209089 L 151.923671763966 35.815481209089 L 151.923671763966 132.79309701897 Z" fill="#0078d7" stroke="none" stroke-width="1" fill-opacity="1"/></g><g transform="translate(63.59091129554 48.234620415538)"><path d="M 33.829005501765 7.163077456744 C 31.984450913251 6.611876422764 30.13887607679 6.611876422764 28.29330124033 6.611876422764 L 25.218435023856 0 L 15.991581089502 2.204522359808 L 17.222107506503 9.367036264332 C 15.991581089502 9.918002484886 14.761269461542 11.01979403794 13.532031778788 11.5713707734 L 6.150752680894 8.816398782572 L 1.23031162796 16.529878907651 L 7.381279097895 20.938360075047 C 6.766015889394 22.591728363561 6.766015889394 24.245096652074 6.766015889394 25.346841242443 L 0 28.101813233271 L 2.459549310713 36.367057944549 L 10.456091617108 35.815481209089 C 11.071193733828 37.468802534918 12.301720150829 38.570594087972 13.532031778788 39.672197790286 L 10.456091617108 45.734047246196 L 19.067736040223 50.141964861372 L 23.988123395897 44.631879991661 C 25.833751929617 45.182282659996 27.062989612371 45.182282659996 28.908564448831 45.182282659996 L 31.984450913251 51.243568563686 L 41.210069810618 49.040173308318 L 40.595021391159 41.877330664999 C 41.825333019119 41.325566078799 43.670907855579 40.223962376485 44.900145538333 39.122170823431 L 52.281424636227 41.877330664999 L 57.20165090012 34.713689656035 L 51.050898219226 30.305396339379 C 51.666161427727 28.651840200125 51.666161427727 27.550236497811 51.666161427727 25.896915171982 L 59.047440525621 23.141755330415 L 56.586602480661 14.876510619137 L 47.976085700013 15.428275205337 C 47.361037280553 14.326483652283 46.130457166292 13.224692099229 44.900145538333 12.121397740254 L 47.976085700013 5.51008486971 L 39.364494974158 1.101791553054 L 33.829005501765 7.163077456744 Z M 34.444053921224 36.917084911403 C 27.67803803183 40.223962376485 19.682784459682 37.468802534918 15.991581089502 31.407000041693 C 12.301720150829 25.346841242443 15.376532670042 18.183247196164 22.142548559437 14.876510619137 C 28.908564448831 11.5713707734 36.903603231938 14.326483652283 40.595021391159 20.386595488847 C 43.670907855579 26.448444944757 41.210069810618 34.162112920575 34.444053921224 36.917084911403 Z" fill="#0078d7" stroke="none" stroke-width="1" fill-opacity="1"/><g class="Text.cls"><rect x="0" y="0" width="59.047428131104" height="51.243569359413" fill="none" stroke="none"/><text fill="#000000" fill-opacity="1"><tspan x="29.523714065552" y="21.841784210205">C# </tspan><tspan x="29.523714065552" y="38.641784210205">Class 1</tspan></text></g></g><g transform="translate(160.341020265549 19.078590785908)"><ellipse cx="22.6568775177" cy="19.078591742882" fill="url(#L00100100000aaff10010000387f100.grad)" rx="22.6568775177" ry="19.078591742882" stroke="url(#L00100100000aaff10010000387f100.grad)" stroke-width="1" fill-opacity="1"/><g class="Text.cls"><rect x="0" y="0" width="45.3137550354" height="38.157183485765" fill="none" stroke="none"/><text fill="#ffffff" fill-opacity="1" stroke="#ffffff"><tspan x="22.6568775177" y="23.698592300415">Job</tspan></text></g></g><g><path d="M 8.654092858141 19.078590785908 L 0 9.539295392954 L 8.654092858141 0 L 54.088045506639 0 L 62.74213836478 9.539295392954 L 54.088045506639 19.078590785908 Z" fill="#00bfff" stroke-width="1" fill-opacity="1"/><g class="Text.cls"><rect x="0" y="0" width="62.742156982422" height="70" fill="none" stroke="none"/><text fill="#ffffff" fill-opacity="1" font-size="16px"><tspan x="31.371078491211" y="18">M A S</tspan></text></g></g></g></g></g></g></g></g><g fill="#ffffff" fill-opacity="1"><g ><g><rect fill="#fffbcc" height="197.145500300481" stroke="#ffb466" stroke-width="2" width="254.454284667969" x="0" y="0" fill-opacity="1"/></g><g transform="translate(62.74213836478 25.438121047877)" fill="#ffffff" fill-opacity="1"><g ><g fill="#ffb466" transform="translate(0 12.719060523939)" fill-opacity="1"><g ><g><path d="M 48.799510663871 11.871080758808 L 48.799510663871 63.312621499548 L 0 63.312621499548 L 0 0 L 34.159608665269 0 L 34.159608665269 12.365725022584 L 48.799510663871 12.365725022584 L 48.799510663871 11.871080758808 Z" fill="#ffb466" fill-opacity="1" stroke="#0d6c9b" stroke-linecap="square" stroke-linejoin="miter" stroke-width="0.7879"/><g class="Text.cls"><rect x="0" y="0" width="48.799491882324" height="63.312622305063" fill="none" stroke="none"/><text fill="#000000" fill-opacity="1"><tspan x="24.399745941162" y="27.876311035156">R Page </tspan><tspan x="24.399745941162" y="44.676311035156">A</tspan></text></g></g><g transform="translate(34.159608665269 0)"><path d="M 0 0 L 14.639901998602 11.871080758808 Z" fill="#ffb466" fill-opacity="1" stroke="none" stroke-linecap="square" stroke-linejoin="miter" stroke-width="0.394"/></g><g transform="translate(34.159608665269 0)"><path d="M 1e-13 1e-13 L 14.639901998602 11.871080758808" fill="#ffb466" fill-opacity="1" stroke="#0d6c9b" stroke-linecap="square" stroke-linejoin="miter" stroke-width="0.7879"/></g></g></g><g fill="#ffb466" transform="translate(27.885394828791 47.69647696477)" fill-opacity="1"><g ><g><path d="M 48.799510663871 11.871080758808 L 48.799510663871 63.312621499548 L 0 63.312621499548 L 0 0 L 34.159608665269 0 L 34.159608665269 12.365725022584 L 48.799510663871 12.365725022584 L 48.799510663871 11.871080758808 Z" fill="#ffb466" fill-opacity="1" stroke="#0d6c9b" stroke-linecap="square" stroke-linejoin="miter" stroke-width="0.7879"/><g class="Text.cls"><rect x="0" y="0" width="48.799491882324" height="63.312622305063" fill="none" stroke="none"/><text fill="#000000" fill-opacity="1"><tspan x="24.399745941162" y="27.876311035156">R Page </tspan><tspan x="24.399745941162" y="44.676311035156">B</tspan></text></g></g><g transform="translate(34.159608665269 0)"><path d="M 0 0 L 14.639901998602 11.871080758808 Z" fill="#ffb466" fill-opacity="1" stroke="none" stroke-linecap="square" stroke-linejoin="miter" stroke-width="0.394"/></g><g transform="translate(34.159608665269 0)"><path d="M 1e-13 1e-13 L 14.639901998602 11.871080758808" fill="#ffb466" fill-opacity="1" stroke="#0d6c9b" stroke-linecap="square" stroke-linejoin="miter" stroke-width="0.7879"/></g></g></g><g fill="#ffb466" transform="translate(52.285115303983 82.673893405601)" fill-opacity="1"><g ><g><path d="M 48.799510663871 11.871080758808 L 48.799510663871 63.312621499548 L 0 63.312621499548 L 0 0 L 34.159608665269 0 L 34.159608665269 12.365725022584 L 48.799510663871 12.365725022584 L 48.799510663871 11.871080758808 Z" fill="#ffb466" fill-opacity="1" stroke="#0d6c9b" stroke-linecap="square" stroke-linejoin="miter" stroke-width="0.7879"/><g class="Text.cls"><rect x="0" y="0" width="48.799491882324" height="63.312622305063" fill="none" stroke="none"/><text fill="#000000" fill-opacity="1"><tspan x="24.399745941162" y="27.876311035156">R Page </tspan><tspan x="24.399745941162" y="44.676311035156">C</tspan></text></g></g><g transform="translate(34.159608665269 0)"><path d="M 0 0 L 14.639901998602 11.871080758808 Z" fill="#ffb466" fill-opacity="1" stroke="none" stroke-linecap="square" stroke-linejoin="miter" stroke-width="0.394"/></g><g transform="translate(34.159608665269 0)"><path d="M 1e-13 1e-13 L 14.639901998602 11.871080758808" fill="#ffb466" fill-opacity="1" stroke="#0d6c9b" stroke-linecap="square" stroke-linejoin="miter" stroke-width="0.7879"/></g></g></g><g fill="#fff266" stroke="#c1c1c1" transform="translate(55.5038 0.0008)" fill-opacity="1"><g ><g transform="translate(0 18.796291237579)"><path d="M 68.454597019413 19.145747425474 L 1.526487397079 19.145747425474 C 0.686914330037 19.145747425474 0 18.808310749774 0 18.395831616983 L 0 0.749852213189 C 0 0.3374366757 0.686914330037 0 1.526487397079 0 L 68.454597019413 0 C 69.294170086455 0 69.981084416492 0.3374366757 69.981084416492 0.749852213189 L 69.981084416492 18.395831616983 C 69.981084416492 18.808310749774 69.294170086455 19.145747425474 68.454597019413 19.145747425474 Z" fill="#fff266" fill-opacity="1" fill-rule="nonzero" stroke="#c1c1c1" stroke-linecap="butt" stroke-linejoin="miter" stroke-opacity="1" stroke-width="2.0833"/></g><g transform="translate(0 18.796291237579)"><path d="M 68.454597019413 19.145747425474 L 1.526487397079 19.145747425474 C 0.686914330037 19.145747425474 0 18.808310749774 0 18.395831616983 L 0 0.749852213189 C 0 0.3374366757 0.686914330037 0 1.526487397079 0 L 68.454597019413 0 C 69.294170086455 0 69.981084416492 0.3374366757 69.981084416492 0.749852213189 L 69.981084416492 18.395831616983 C 69.981084416492 18.808310749774 69.294170086455 19.145747425474 68.454597019413 19.145747425474 Z" fill="#fff266" fill-opacity="1" fill-rule="nonzero" stroke="#c1c1c1" stroke-linecap="butt" stroke-opacity="1" stroke-width="4.1667"/></g><g transform="translate(0.213742226404 18.62833604336)"><path d="M 67.932538129666 19.528845528455 L 1.747827569791 19.528845528455 C 0.783088334621 19.528845528455 0 19.144221138211 0 18.670308943089 L 0 0.858536585366 C 0 0.384687985547 0.783088334621 0 1.747827569791 0 L 67.932538129666 0 C 68.897277364836 0 69.680365699457 0.384687985547 69.680365699457 0.858536585366 L 69.680365699457 18.670308943089 C 69.680365699457 19.144221138211 68.897277364836 19.528845528455 67.932538129666 19.528845528455 Z" fill="#fff266" fill-opacity="1" fill-rule="nonzero" stroke="#c1c1c1" stroke-linecap="butt" stroke-opacity="1" stroke-width="4.1667"/></g><g transform="translate(0.557149404933 0)"><path d="M 0 28.407767299006 L 69.237685354033 28.407767299006 M 40.566834960508 22.378996205962 L 28.327343242019 22.378996205962 M 40.582130826101 32.129237217706 L 28.327343242019 32.129237217706 M 34.505173401329 0 L 34.505173401329 14.149509665763" fill="#fff266" fill-opacity="1" fill-rule="nonzero" stroke="#c1c1c1" stroke-opacity="1" stroke-width="4.1667"/><g class="Text.cls"><rect x="0" y="0" width="69.237693725187" height="32.129215240479" fill="none" stroke="none"/><text fill="#000000" fill-opacity="1" font-size="18px" stroke="#ffffff"><tspan x="34.618846893311" y="27.069215240479">Session</tspan></text></g></g><g transform="translate(25.6208747887 9.567213730804)"><path d="M 18.837008438343 0 L 9.464341829464 4.604045528455 M 1e-13 1e-13 L 9.372766581856 4.604045528455" fill="#fff266" fill-opacity="1" fill-rule="nonzero" stroke="#c1c1c1" stroke-opacity="1" stroke-width="4.1667"/></g></g></g></g></g></g></g></g></g></g></g><g transform="translate(120.296347583008 290.731650448608)"><rect fill="none" height="44.2683" stroke="none" width="343.7037" x="0" y="0" stroke-width="1"/><g class="Text.cls"><rect x="0" y="0" width="343.703674316406" height="44.268284841684" fill="none" stroke="none"/><text fill="#000000" fill-opacity="1" font-size="18px"><tspan x="171.851837158203" y="28.074141921997">Web &amp; Application Server</tspan></text></g></g></g></g></svg>