<svg xmlns="http://www.w3.org/2000/svg" xmlns:xlink="http://www.w3.org/1999/xlink" xmlns:v="http://vecta.io" width="1172" height="786" viewBox="0 0 1172 786"><style><![CDATA[svg{stroke:#000;stroke-linecap:round;stroke-linejoin:round;fill:#fff;fill-rule:evenodd;font-family:Roboto;font-size:14px;text-anchor:middle}svg text{paint-order:stroke;white-space:pre}svg .Text\.cls{stroke:none}]]></style><defs><style>@import url("https://fonts.googleapis.com/css?family=Roboto:400,400i,700,700i");</style><filter id="l0lird8to7.flt" x="-6%" y="-4.6875%" width="116%" height="112.5%"><feGaussianBlur class="Shadow.eff" in="SourceAlpha" stdDeviation="1" result="shadow"/><feOffset class="Shadow.eff" in="shadow" dx="2" dy="2" result="shadow_offset"/><feFlood class="Shadow.eff" flood-color="#000" flood-opacity="0.19966947115384615"/><feComposite class="Shadow.eff" in2="shadow_offset" operator="in" result="shadow_eff"/><feMerge class="Shadow.eff"><feMergeNode in="shadow_eff"/><feMergeNode in="SourceGraphic"/></feMerge></filter><filter id="l0lird8uo8.flt" x="-27.5%" y="-32.5%" width="160%" height="160%"><feGaussianBlur class="Shadow.eff" in="SourceAlpha" stdDeviation="2" result="shadow"/><feOffset class="Shadow.eff" in="shadow" dx="1" dy="-1" result="shadow_offset"/><feFlood class="Shadow.eff" flood-color="#000" flood-opacity="0.19966947115384615"/><feComposite class="Shadow.eff" in2="shadow_offset" operator="in" result="shadow_eff"/><feMerge class="Shadow.eff"><feMergeNode in="shadow_eff"/><feMergeNode in="SourceGraphic"/></feMerge></filter><filter id="l0lixril162.flt" x="-6%" y="-4.6875%" width="116%" height="112.5%"><feGaussianBlur class="Shadow.eff" in="SourceAlpha" stdDeviation="1" result="shadow"/><feOffset class="Shadow.eff" in="shadow" dx="2" dy="2" result="shadow_offset"/><feFlood class="Shadow.eff" flood-color="#000" flood-opacity="0.19966947115384615"/><feComposite class="Shadow.eff" in2="shadow_offset" operator="in" result="shadow_eff"/><feMerge class="Shadow.eff"><feMergeNode in="shadow_eff"/><feMergeNode in="SourceGraphic"/></feMerge></filter><filter id="l0lixril163.flt" x="-27.5%" y="-32.5%" width="160%" height="160%"><feGaussianBlur class="Shadow.eff" in="SourceAlpha" stdDeviation="2" result="shadow"/><feOffset class="Shadow.eff" in="shadow" dx="1" dy="-1" result="shadow_offset"/><feFlood class="Shadow.eff" flood-color="#000" flood-opacity="0.19966947115384615"/><feComposite class="Shadow.eff" in2="shadow_offset" operator="in" result="shadow_eff"/><feMerge class="Shadow.eff"><feMergeNode in="shadow_eff"/><feMergeNode in="SourceGraphic"/></feMerge></filter><g id="thin.end"><path d="M 0 0 L 3 10 L -3 10 Z" stroke="none"/></g><g id="thick.end"><path d="M 0 0 L 4 5 L -4 5 Z" stroke="none"/></g></defs><rect x="0" y="0" width="600" height="735" stroke-width="2" fill="#99e6ff" transform="translate(570 1)"/><rect x="0" y="0" width="393" height="675" stroke="#e0e0e0" fill="#66ff80" transform="translate(587 23)"/><rect x="0" y="0" width="510" height="730" stroke-width="3" fill="#fff799" transform="translate(2 3)"/><rect x="0" y="0" width="225" height="675" stroke="#e0e0e0" fill="#66ff80" transform="translate(272 18)"/><g transform="translate(12 13)"><rect height="50" stroke="none" width="200" x="0" y="0"/><g class="Text.cls"><rect x="0" y="0" width="200" height="50" fill="none" stroke="none"/><text fill="#000000" fill-opacity="1" text-anchor="start"><tspan x="2" y="21.22">ASP.NET Core "Yellow" Thread</tspan><tspan x="2" y="38.02">Stateless (*)</tspan></text></g></g><g fill="#fff266" fill-opacity="1" stroke="#a2a2a2" stroke-width="2" transform="translate(132.019 99.8428)"><g ><g transform="translate(0 31.1113)"><path d="M 68.4546 31.6898 L 1.5265 31.6898 C 0.6869 31.6898 0 31.1312 0 30.4485 L 0 1.2411 C 0 0.5585 0.6869 0 1.5265 0 L 68.4546 0 C 69.2942 0 69.9811 0.5585 69.9811 1.2411 L 69.9811 30.4485 C 69.9811 31.1312 69.2942 31.6898 68.4546 31.6898 Z" fill="#fff266" fill-opacity="1" fill-rule="nonzero" stroke="#a2a2a2" stroke-linecap="butt" stroke-linejoin="miter" stroke-opacity="1" stroke-width="2"/></g><g transform="translate(0 31.1113)"><path d="M 68.4546 31.6898 L 1.5265 31.6898 C 0.6869 31.6898 0 31.1312 0 30.4485 L 0 1.2411 C 0 0.5585 0.6869 0 1.5265 0 L 68.4546 0 C 69.2942 0 69.9811 0.5585 69.9811 1.2411 L 69.9811 30.4485 C 69.9811 31.1312 69.2942 31.6898 68.4546 31.6898 Z" fill="#fff266" fill-opacity="1" fill-rule="nonzero" stroke="#a2a2a2" stroke-linecap="butt" stroke-opacity="1" stroke-width="2"/></g><g transform="translate(0.2137 30.8333)"><path d="M 67.9325 32.3239 L 1.7478 32.3239 C 0.7831 32.3239 0 31.6872 0 30.9028 L 0 1.421 C 0 0.6367 0.7831 0 1.7478 0 L 67.9325 0 C 68.8973 0 69.6804 0.6367 69.6804 1.421 L 69.6804 30.9028 C 69.6804 31.6872 68.8973 32.3239 67.9325 32.3239 Z" fill="#fff266" fill-opacity="1" fill-rule="nonzero" stroke="#a2a2a2" stroke-linecap="butt" stroke-opacity="1" stroke-width="2"/></g><g transform="translate(0.5571 0)"><path d="M 0 47.0201 L 69.2377 47.0201 M 40.5668 37.0414 L 28.3273 37.0414 M 40.5821 53.1798 L 28.3273 53.1798 M 34.5052 0 L 34.5052 23.4201" fill="#fff266" fill-opacity="1" fill-rule="nonzero" stroke="#a2a2a2" stroke-opacity="1" stroke-width="2"/><g class="Text.cls"><rect x="0" y="0" width="69.237693786621" height="53.179790496826" fill="none" stroke="none"/><text fill="#000000" fill-opacity="1" font-size="18px" stroke="#ffffff"><tspan x="34.618846893311" y="20">Session</tspan></text></g></g><g transform="translate(25.6209 15.8355)"><path d="M 18.837 0 L 9.4643 7.6205 M 1e-13 1e-13 L 9.3728 7.6205" fill="#fff266" fill-opacity="1" fill-rule="nonzero" stroke="#a2a2a2" stroke-opacity="1" stroke-width="2"/></g></g></g><g transform="translate(312 223)"><ellipse cx="62.5" cy="60" fill="#ff8200" rx="62.5" ry="60"/><g class="Text.cls"><rect x="0" y="0" width="125" height="120" fill="none" stroke="none"/><text fill="#000000" fill-opacity="1"><tspan x="62.5" y="56.22">Device</tspan><tspan x="62.5" y="73.02">Proxy</tspan></text></g></g><g transform="translate(292 408)"><g ><g transform="translate(0 0)"><path d="M 69.302470774407 11.454972918986 C 34.53734503683 5.664911827631 15.629843704627 20.929654815254 18.679565665907 34.615217284406 L 18.679565665907 35.141610790563 C -8.766692261239 39.352491363446 -1.44766948526 67.250009807906 11.970332316638 67.250009807906 L 13.19022110115 67.250009807906 C 9.530709713161 80.409178770901 41.856212847261 93.568347733895 59.543825394952 86.725633368413 L 60.763559213917 85.672846356098 C 66.862693205383 97.779362044965 90.039495352284 99.35840882525 111.996408714673 99.884802331407 C 131.513699473585 100.411195837564 142.492078672006 99.35840882525 151.030990232496 91.98930095361 L 152.250724051461 91.98930095361 C 183.356493366597 94.094741240052 197.384439560751 75.67190469186 190.675361177029 62.512601990679 L 192.50503938825 61.986342222709 C 202.873629159962 59.88076819808 204.093517944474 38.826097857289 185.796115970074 35.667870558533 L 186.405905396783 34.615217284406 C 194.334872565018 20.929654815254 175.427526198362 8.29674562023 149.811101447984 10.402319644859 L 147.981268271216 9.875926138702 C 129.683866296817 -4.862423342764 76.621338584839 -2.230589550165 70.522204593373 11.981366425143 Z" stroke="none" stroke-linejoin="miter" stroke-linecap="square" stroke-width="0.3936"/><g class="Text.cls"><rect x="0" y="0" width="200.00002892674" height="100.000057991288" fill="none" stroke="none"/><text fill="#000000" fill-opacity="1"><tspan x="100.000015258789" y="54.620030517578">Displayfile DataSet D2</tspan></text></g></g><g transform="translate(0 0)"><path d="M 69.302470774407 11.454972918986 C 34.53734503683 5.664911827631 15.629843704627 20.929654815254 18.679565665907 34.615217284406 L 18.679565665907 35.141610790563 C -8.766692261239 39.352491363446 -1.44766948526 67.250009807906 11.970332316638 67.250009807906 L 13.19022110115 67.250009807906 C 9.530709713161 80.409178770901 41.856212847261 93.568347733895 59.543825394952 86.725633368413 L 60.763559213917 85.672846356098 C 66.862693205383 97.779362044965 90.039495352284 99.35840882525 111.996408714673 99.884802331407 C 131.513699473585 100.411195837564 142.492078672006 99.35840882525 151.030990232496 91.98930095361 L 152.250724051461 91.98930095361 C 183.356493366597 94.094741240052 197.384439560751 75.67190469186 190.675361177029 62.512601990679 L 192.50503938825 61.986342222709 C 202.873629159962 59.88076819808 204.093517944474 38.826097857289 185.796115970074 35.667870558533 L 186.405905396783 34.615217284406 C 194.334872565018 20.929654815254 175.427526198362 8.29674562023 149.811101447984 10.402319644859 L 147.981268271216 9.875926138702 C 129.683866296817 -4.862423342764 76.621338584839 -2.230589550165 70.522204593373 11.981366425143 Z" stroke="#0f73a0" stroke-linejoin="miter" stroke-linecap="square" fill="none" stroke-width="0.7872"/></g></g></g><g transform="translate(17 208)"><g ><g transform="translate(37.241379310345 0)"><g ><g transform="translate(18.685324137931 0)"><path fill="#cfd8dc" d="M 59.935365517241 2.231712857143 L 4.073296551724 32.918232857143 L 0 30.68652 L 56.443944827586 0 Z" stroke-linecap="square" stroke-linejoin="miter" stroke="none" stroke-width="1"/></g><g transform="translate(4.137848275862 2.231631428571)"><path fill="#B0BEC5" d="M 0 148.411144285714 L 74.48275862069 107.123845714286 L 74.48275862069 0 L 18.329710344828 30.68652 L 0 62.488937142857 Z" stroke-linecap="square" stroke-linejoin="miter" stroke="none" stroke-width="1"/><g class="Text.cls"><rect x="0" y="0" width="74.482738738364" height="148.411202529381" fill="none" stroke="none"/><text fill="#000000" fill-opacity="1" font-size="12px"><tspan x="37.241371154785" y="78.165604553223">D1.cshtml.cs</tspan></text></g></g><g transform="translate(0.064717241379 60.257142857143)"><path d="M 0 88.154001428571 L 4.073296551724 90.385714285714 L 4.073296551724 2.231712857143 L 0 0 Z" stroke-linecap="square" stroke-linejoin="miter" stroke="none" fill="#90a4ae" stroke-width="1"/></g><g transform="translate(0 29.524045714286)"><path fill="#ECEFF1" d="M 0.064635505503 30.733029286705 Q -0.517157597945 35.196536429562 4.137849298607 35.196536429562 L 25.086290677917 2.27838500099 Q 22.176745850331 -1.627336427581 18.685407919296 1.16232500099 Z" stroke-linecap="square" stroke-linejoin="miter" stroke="none" stroke-width="1"/></g><g transform="translate(4.137931034483 31.802335714286)"><path fill="#c4ced4" d="M 20.948275862069 0 L 0 32.918232857143 Q 9.892220689655 25.665064285714 22.693986206897 23.9913 Q 22.693986206897 2.789661428571 20.948275862069 0 Z" stroke-linecap="square" stroke-linejoin="miter" stroke="none" stroke-width="1"/></g><g transform="translate(4.137931034483 55.793635714286)"><path fill="#788f9b" d="M 22.693986206897 0 Q 8.728468965517 1.115897142857 0 8.927014285714 L 0 12.274624285714 Q 8.146510344828 4.463507142857 22.693986206897 0 Z" stroke-linecap="square" stroke-linejoin="miter" stroke="none" stroke-width="1"/></g></g></g><g transform="translate(0 85.5)" fill="#99e6ff" stroke="#646464"><g ><g fill="#99e6ff" fill-opacity="1" stroke="#646464" stroke-opacity="1"><g ><g><path d="M 111.724137931034 38.169642857143 L 67.034482758621 0 L 11.172413793103 0 C 4.982896551724 0 0 4.255915178571 0 9.542410714286 L 0 112.600446428571 C 0 117.886941964286 4.982896551724 122.142857142857 11.172413793103 122.142857142857 L 100.551724137931 122.142857142857 C 106.74124137931 122.142857142857 111.724137931034 117.886941964286 111.724137931034 112.600446428571 Z" fill="#99e6ff" stroke="#646464" stroke-width="1" filter="url(#l0lird8to7.flt)" fill-opacity="1" stroke-opacity="1"/></g><g transform="translate(67.034482758621 0) rotate(180 22.344827586207 19.084821428571)"><path d="M 44.689655172414 38.169642857143 L 0 0 L 33.51724137931 0 C 39.70675862069 0 44.689655172414 4.255915178571 44.689655172414 9.542410714286 Z" fill="#99e6ff" stroke="#646464" stroke-width="1" filter="url(#l0lird8uo8.flt)" fill-opacity="1" stroke-opacity="1"/><defs><filter x="-27.5%" y="-32.5%" width="160%" height="160%"><feGaussianBlur class="Shadow.eff" in="SourceAlpha" stdDeviation="2" result="shadow"/><feOffset class="Shadow.eff" in="shadow" dx="1" dy="-1" result="shadow_offset"/><feFlood class="Shadow.eff" flood-color="#000" flood-opacity="0.19966947115384615"/><feComposite class="Shadow.eff" in2="shadow_offset" operator="in" result="shadow_eff"/><feMerge class="Shadow.eff"><feMergeNode in="shadow_eff"/><feMergeNode in="SourceGraphic"/></feMerge></filter><linearGradient x1="0%" y1="0%" x2="100%" y2="100%"><stop offset="0%" stop-color="#ffd194"/><stop offset="100%" stop-color="#d1913c"/></linearGradient></defs></g></g></g><g transform="translate(20.878336551724 50.574776785714)" fill="#99e6ff" fill-opacity="1" stroke="#646464" stroke-opacity="1"><g ><g transform="translate(0 7.894818080357)"><path d="M 22.545484137931 6.262302455357 L 7.620033103448 10.847049107143 L 22.545484137931 15.342478794643 L 22.545484137931 21.604590401786 L 0 13.441439732143 L 0 8.163150669643 L 22.545484137931 0 L 22.545484137931 6.262302455357 Z" fill="#99e6ff" fill-opacity="1" stroke="#646464" stroke-linejoin="miter" stroke-width="1" stroke-opacity="1"/></g><g transform="translate(25.530753103448 0)"><path d="M 19.665235862069 0 L 5.629779310345 35.359021205357 L 0 35.359021205357 L 14.035456551724 0 L 19.665235862069 0 Z" fill="#99e6ff" fill-opacity="1" stroke="#646464" stroke-linejoin="miter" stroke-width="1" stroke-opacity="1"/></g><g transform="translate(49.045108965517 7.917147321429)"><path d="M 0 15.364808035714 L 15.213699310345 10.757541294643 L 0 6.217453125 L 0 0 L 22.807365517241 8.163150669643 L 22.807365517241 13.419110491071 L 0 21.604590401786 L 0 15.364808035714 Z" fill="#99e6ff" fill-opacity="1" stroke="#646464" stroke-linejoin="miter" stroke-width="1" stroke-opacity="1"/></g></g><g class="Text.cls"><rect x="0" y="0" width="71.852596201795" height="35.359111128182" fill="none" stroke="none"/><text fill="#000000" fill-opacity="1" text-anchor="start" font-size="12px"><tspan x="2" y="-14.360444107056">D1.cshtml</tspan><tspan x="2" y="0.039555892944"/><tspan x="2" y="14.439555892944"/><tspan x="2" y="28.839555892944"/><tspan x="2" y="43.239555892944">Razor Page </tspan><tspan x="2" y="57.639555892944">D1</tspan></text></g></g></g></g><g transform="translate(161.379310344827 77.357142857143)"><g ><g transform="translate(18.685324137931 0)"><path fill="#cfd8dc" d="M 59.935365517241 2.231712857143 L 4.073296551724 32.918232857143 L 0 30.68652 L 56.443944827586 0 Z" stroke-linecap="square" stroke-linejoin="miter" stroke="none" stroke-width="1"/></g><g transform="translate(4.137848275862 2.231631428571)"><path fill="#B0BEC5" d="M 0 148.411144285714 L 74.48275862069 107.123845714286 L 74.48275862069 0 L 18.329710344828 30.68652 L 0 62.488937142857 Z" stroke-linecap="square" stroke-linejoin="miter" stroke="none" stroke-width="1"/><g class="Text.cls"><rect x="0" y="0" width="74.482738738364" height="148.411202529381" fill="none" stroke="none"/><text fill="#000000" fill-opacity="1" font-size="12px"><tspan x="37.241371154785" y="78.165604553223">D2.cshtml.cs</tspan></text></g></g><g transform="translate(0.064717241379 60.257142857143)"><path d="M 0 88.154001428571 L 4.073296551724 90.385714285714 L 4.073296551724 2.231712857143 L 0 0 Z" stroke-linecap="square" stroke-linejoin="miter" stroke="none" fill="#90a4ae" stroke-width="1"/></g><g transform="translate(0 29.524045714286)"><path fill="#ECEFF1" d="M 0.064635505503 30.733029286705 Q -0.517157597945 35.196536429562 4.137849298607 35.196536429562 L 25.086290677917 2.27838500099 Q 22.176745850331 -1.627336427581 18.685407919296 1.16232500099 Z" stroke-linecap="square" stroke-linejoin="miter" stroke="none" stroke-width="1"/></g><g transform="translate(4.137931034483 31.802335714286)"><path fill="#c4ced4" d="M 20.948275862069 0 L 0 32.918232857143 Q 9.892220689655 25.665064285714 22.693986206897 23.9913 Q 22.693986206897 2.789661428571 20.948275862069 0 Z" stroke-linecap="square" stroke-linejoin="miter" stroke="none" stroke-width="1"/></g><g transform="translate(4.137931034483 55.793635714286)"><path fill="#788f9b" d="M 22.693986206897 0 Q 8.728468965517 1.115897142857 0 8.927014285714 L 0 12.274624285714 Q 8.146510344828 4.463507142857 22.693986206897 0 Z" stroke-linecap="square" stroke-linejoin="miter" stroke="none" stroke-width="1"/></g></g></g><g transform="translate(124.137931034483 162.857142857143)" fill="#99e6ff" stroke="#646464"><g ><g fill="#99e6ff" fill-opacity="1" stroke="#646464" stroke-opacity="1"><g ><g><path d="M 107.586206896552 38.169642857143 L 64.551724137931 0 L 10.758620689655 0 C 4.798344827586 0 0 4.255915178571 0 9.542410714286 L 0 112.600446428571 C 0 117.886941964286 4.798344827586 122.142857142857 10.758620689655 122.142857142857 L 96.827586206897 122.142857142857 C 102.787862068966 122.142857142857 107.586206896552 117.886941964286 107.586206896552 112.600446428571 Z" fill="#99e6ff" stroke="#646464" stroke-width="1" fill-opacity="1" stroke-opacity="1" filter="url(#l0lixril162.flt)"/><defs><filter x="-6%" y="-4.6875%" width="116%" height="112.5%"><feGaussianBlur class="Shadow.eff" in="SourceAlpha" stdDeviation="1" result="shadow"/><feOffset class="Shadow.eff" in="shadow" dx="2" dy="2" result="shadow_offset"/><feFlood class="Shadow.eff" flood-color="#000" flood-opacity="0.19966947115384615"/><feComposite class="Shadow.eff" in2="shadow_offset" operator="in" result="shadow_eff"/><feMerge class="Shadow.eff"><feMergeNode in="shadow_eff"/><feMergeNode in="SourceGraphic"/></feMerge></filter><linearGradient x1="0%" y1="0%" x2="100%" y2="100%"><stop offset="0%" stop-color="#ffd194"/><stop offset="100%" stop-color="#d1913c"/></linearGradient></defs></g><g transform="translate(64.551724137931 0) rotate(180 21.51724137931 19.084821428571)"><path d="M 43.034482758621 38.169642857143 L 0 0 L 32.275862068965 0 C 38.236137931034 0 43.034482758621 4.255915178571 43.034482758621 9.542410714286 Z" fill="#99e6ff" stroke="#646464" stroke-width="1" fill-opacity="1" stroke-opacity="1" filter="url(#l0lixril163.flt)"/><defs><filter x="-27.5%" y="-32.5%" width="160%" height="160%"><feGaussianBlur class="Shadow.eff" in="SourceAlpha" stdDeviation="2" result="shadow"/><feOffset class="Shadow.eff" in="shadow" dx="1" dy="-1" result="shadow_offset"/><feFlood class="Shadow.eff" flood-color="#000" flood-opacity="0.19966947115384615"/><feComposite class="Shadow.eff" in2="shadow_offset" operator="in" result="shadow_eff"/><feMerge class="Shadow.eff"><feMergeNode in="shadow_eff"/><feMergeNode in="SourceGraphic"/></feMerge></filter><linearGradient x1="0%" y1="0%" x2="100%" y2="100%"><stop offset="0%" stop-color="#ffd194"/><stop offset="100%" stop-color="#d1913c"/></linearGradient></defs></g></g></g><g transform="translate(20.105064827586 50.574776785714)" fill="#99e6ff" fill-opacity="1" stroke="#646464" stroke-opacity="1"><g ><g transform="translate(0 7.894818080357)"><path d="M 21.710466206897 6.262302455357 L 7.337809655172 10.847049107143 L 21.710466206897 15.342478794643 L 21.710466206897 21.604590401786 L 0 13.441439732143 L 0 8.163150669643 L 21.710466206897 0 L 21.710466206897 6.262302455357 Z" fill="#99e6ff" fill-opacity="1" stroke="#646464" stroke-linejoin="miter" stroke-width="1" stroke-opacity="1"/></g><g transform="translate(24.585169655172 0)"><path d="M 18.936893793103 0 L 5.421268965517 35.359021205357 L 0 35.359021205357 L 13.515624827586 0 L 18.936893793103 0 Z" fill="#99e6ff" fill-opacity="1" stroke="#646464" stroke-linejoin="miter" stroke-width="1" stroke-opacity="1"/></g><g transform="translate(47.228623448276 7.917147321429)"><path d="M 0 15.364808035714 L 14.650228965517 10.757541294643 L 0 6.217453125 L 0 0 L 21.962648275862 8.163150669643 L 21.962648275862 13.419110491071 L 0 21.604590401786 L 0 15.364808035714 Z" fill="#99e6ff" fill-opacity="1" stroke="#646464" stroke-linejoin="miter" stroke-width="1" stroke-opacity="1"/></g></g><g class="Text.cls"><rect x="0" y="0" width="69.191349110705" height="35.359111128182" fill="none" stroke="none"/><text fill="#000000" fill-opacity="1" text-anchor="start" font-size="12px"><tspan x="2" y="-14.360444107056">D1.cshtml</tspan><tspan x="2" y="0.039555892944"/><tspan x="2" y="14.439555892944"/><tspan x="2" y="28.839555892944"/><tspan x="2" y="43.239555892944">Razor Page </tspan><tspan x="2" y="57.639555892944">D2</tspan></text></g></g></g></g></g></g><g transform="translate(12 688)"><rect x="0" y="0" width="290" height="50" fill="none" stroke="none"/><g class="Text.cls"><rect x="0" y="0" width="290" height="50" fill="none" stroke="none"/><text fill="#a2a2a2" fill-opacity="1"><tspan x="145" y="29.62">* Response waits until next Workstation Read.</tspan></text></g></g><g transform="translate(202.000134852599 156.983132161535)"><path fill="none" d="M 1e-13 1e-13 L 115.046897888184 84.045501708984" stroke="#000" fill-opacity="0.14"/><use class="EndArrow.cls" x="122.718002319336" y="89.64949798584" transform="scale(1) rotate(126.149336232685 122.718002319336 89.64949798584)" fill="#000" xlink:href="#thin.end"/></g><g transform="translate(137 227.999983157895)"><path fill="none" d="M 165.146697998047 38.244499206543 L 5.480000019073 1.269000053406" fill-opacity="0.14" stroke="#838383" stroke-width="2"/><use class="BeginArrow.cls" x="141.372399902344" y="32.738879394531" transform="scale(1.25) rotate(103.03862072098 141.372399902344 32.738879394531)" fill="#838383" xlink:href="#thin.end"/><use class="EndArrow.cls" x="0" y="0" transform="scale(1.25) rotate(283.038662601125 0 0)" fill="#838383" xlink:href="#thick.end"/></g><g transform="translate(256.9999 300.04200626763)"><path fill="none" d="M 46.114700317383 3.246400117874 L 5.41069984436 14.814999580383" fill-opacity="0.14" stroke-width="2"/><use class="BeginArrow.cls" x="46.029840087891" y="0" transform="scale(1.25) rotate(74.134230010512 46.029840087891 0)" fill="#000000" xlink:href="#thin.end"/><use class="EndArrow.cls" x="0" y="13.08224029541" transform="scale(1.25) rotate(254.134196991794 0 13.08224029541)" fill="#000000" xlink:href="#thick.end"/></g><g transform="translate(380.719688230466 342.70930298654)"><path fill="none" d="M 0.984300017357 9.448900222778 L 5.814099788666 55.81489944458" fill-opacity="0.14"/><use class="BeginArrow.cls" x="0" y="0" transform="scale(1) rotate(354.053113848364 0 0)" fill="#000000" xlink:href="#thin.end"/><use class="EndArrow.cls" x="6.280311584473" y="60.29069519043" transform="scale(1) rotate(174.053106149131 6.280311584473 60.29069519043)" fill="#000000" xlink:href="#thick.end"/></g><g transform="translate(627 228)"><ellipse cx="62.5" cy="60" fill="#ff8200" rx="62.5" ry="60"/><g class="Text.cls"><rect x="0" y="0" width="125" height="120" fill="none" stroke="none"/><text fill="#000000" fill-opacity="1"><tspan x="62.5" y="56.22">Device</tspan><tspan x="62.5" y="73.02">Proxy</tspan></text></g></g><g transform="translate(607 413)"><g ><g><path d="M 69.3025 11.455 C 34.5373 5.6649 15.6298 20.9297 18.6796 34.6152 L 18.6796 35.1416 C -8.7667 39.3525 -1.4477 67.25 11.9703 67.25 L 13.1902 67.25 C 9.5307 80.4092 41.8562 93.5683 59.5438 86.7256 L 60.7636 85.6728 C 66.8627 97.7794 90.0395 99.3584 111.9964 99.8848 C 131.5137 100.4112 142.4921 99.3584 151.031 91.9893 L 152.2507 91.9893 C 183.3565 94.0947 197.3844 75.6719 190.6754 62.5126 L 192.505 61.9863 C 202.8736 59.8808 204.0935 38.8261 185.7961 35.6679 L 186.4059 34.6152 C 194.3349 20.9297 175.4275 8.2967 149.8111 10.4023 L 147.9813 9.8759 C 129.6839 -4.8624 76.6213 -2.2306 70.5222 11.9814 Z" stroke="none" stroke-linejoin="miter" stroke-linecap="square" stroke-width="0.3936"/><g class="Text.cls"><rect x="0" y="0" width="200.00002892674" height="100.000057991288" fill="none" stroke="none"/><text fill="#000000" fill-opacity="1"><tspan x="100.000015258789" y="54.620030517578">Displayfile DataSet D2</tspan></text></g></g><g><path d="M 69.3025 11.455 C 34.5373 5.6649 15.6298 20.9297 18.6796 34.6152 L 18.6796 35.1416 C -8.7667 39.3525 -1.4477 67.25 11.9703 67.25 L 13.1902 67.25 C 9.5307 80.4092 41.8562 93.5683 59.5438 86.7256 L 60.7636 85.6728 C 66.8627 97.7794 90.0395 99.3584 111.9964 99.8848 C 131.5137 100.4112 142.4921 99.3584 151.031 91.9893 L 152.2507 91.9893 C 183.3565 94.0947 197.3844 75.6719 190.6754 62.5126 L 192.505 61.9863 C 202.8736 59.8808 204.0935 38.8261 185.7961 35.6679 L 186.4059 34.6152 C 194.3349 20.9297 175.4275 8.2967 149.8111 10.4023 L 147.9813 9.8759 C 129.6839 -4.8624 76.6213 -2.2306 70.5222 11.9814 Z" stroke="#0f73a0" stroke-linejoin="miter" stroke-linecap="square" fill="none" stroke-width="0.7872"/></g></g></g><g transform="translate(767 308)"><g ><g><path d="M 69.3025 11.455 C 34.5373 5.6649 15.6298 20.9297 18.6796 34.6152 L 18.6796 35.1416 C -8.7667 39.3525 -1.4477 67.25 11.9703 67.25 L 13.1902 67.25 C 9.5307 80.4092 41.8562 93.5683 59.5438 86.7256 L 60.7636 85.6728 C 66.8627 97.7794 90.0395 99.3584 111.9964 99.8848 C 131.5137 100.4112 142.4921 99.3584 151.031 91.9893 L 152.2507 91.9893 C 183.3565 94.0947 197.3844 75.6719 190.6754 62.5126 L 192.505 61.9863 C 202.8736 59.8808 204.0935 38.8261 185.7961 35.6679 L 186.4059 34.6152 C 194.3349 20.9297 175.4275 8.2967 149.8111 10.4023 L 147.9813 9.8759 C 129.6839 -4.8624 76.6213 -2.2306 70.5222 11.9814 Z" stroke="none" stroke-linejoin="miter" stroke-linecap="square" stroke-width="0.3936"/><g class="Text.cls"><rect x="0" y="0" width="200.00002892674" height="100.000057991288" fill="none" stroke="none"/><text fill="#000000" fill-opacity="1"><tspan x="100.000015258789" y="54.620030517578">Displayfile DataSet D1</tspan></text></g></g><g><path d="M 69.3025 11.455 C 34.5373 5.6649 15.6298 20.9297 18.6796 34.6152 L 18.6796 35.1416 C -8.7667 39.3525 -1.4477 67.25 11.9703 67.25 L 13.1902 67.25 C 9.5307 80.4092 41.8562 93.5683 59.5438 86.7256 L 60.7636 85.6728 C 66.8627 97.7794 90.0395 99.3584 111.9964 99.8848 C 131.5137 100.4112 142.4921 99.3584 151.031 91.9893 L 152.2507 91.9893 C 183.3565 94.0947 197.3844 75.6719 190.6754 62.5126 L 192.505 61.9863 C 202.8736 59.8808 204.0935 38.8261 185.7961 35.6679 L 186.4059 34.6152 C 194.3349 20.9297 175.4275 8.2967 149.8111 10.4023 L 147.9813 9.8759 C 129.6839 -4.8624 76.6213 -2.2306 70.5222 11.9814 Z" stroke="#0f73a0" stroke-linejoin="miter" stroke-linecap="square" fill="none" stroke-width="0.7872"/></g></g></g><g transform="translate(1000 496)"><g ><g><rect height="70" stroke-width="1" width="150" x="0" y="0"/><g class="Text.cls"><rect x="0" y="0" width="150" height="70" fill="none" stroke="none"/><text fill="#000000" fill-opacity="1"><tspan x="75" y="16">RPG Program C</tspan></text></g></g><g transform="translate(0 20)"><path d="M 1e-13 1e-13 L 150 0" fill="#ffccff" stroke-width="1"/></g></g></g><g transform="translate(777 43)"><g ><g><g ><g><rect height="70" stroke-width="1" width="150" x="0" y="0"/><g class="Text.cls"><rect x="0" y="0" width="150" height="70" fill="none" stroke="none"/><text fill="#000000" fill-opacity="1"><tspan x="75" y="16">WebJob</tspan></text></g></g><g transform="translate(0 20)"><path d="M 1e-13 1e-13 L 150 0" fill="#ffccff" stroke-width="1"/></g></g></g><g transform="translate(25 40)"><rect x="0" y="0" width="105" height="25" fill="none" stroke="none" stroke-width="1"/><g class="Text.cls"><rect x="0" y="0" width="105" height="25" fill="none" stroke="none"/><text fill="#000000" fill-opacity="1"><tspan x="52.5" y="8.72">Program List</tspan><tspan x="52.5" y="25.52">Device</tspan></text></g></g></g></g><g transform="translate(780 141)"><g ><g stroke-linecap="round" stroke-linejoin="round"><g ><g><rect height="100" stroke-width="1" width="150" x="0" y="0" stroke-linecap="round" stroke-linejoin="round"/></g><g transform="translate(0 20)"><path d="M 1e-13 1e-13 L 150 0" fill="#ffccff" stroke-width="1" stroke-linecap="round" stroke-linejoin="round"/></g></g><g class="Text.cls"><rect x="0" y="0" width="150" height="100" fill="none" stroke="none"/><text fill="#000000" fill-opacity="1"><tspan x="75" y="16">WebDevice</tspan></text></g></g><g transform="translate(42 27)" stroke-linecap="round" stroke-linejoin="round"><g ><g><path d="M 30 9.0673 L 30 55.6995 C 30 60.6865 25.7045 64.7669 20.4545 64.7669 L 9.5454 64.7669 C 4.2955 64.7669 0 60.6865 0 55.6995 L 0 9.0673 C 0 4.0803 4.2955 0 9.5454 0 L 20.4545 0 C 25.7045 0 30 4.0803 30 9.0673 Z" fill="#d0cfce" stroke="none" stroke-linejoin="miter" stroke-linecap="butt" fill-rule="nonzero" stroke-width="2.0833"/></g><g transform="translate(8.1818 44.6528)"><path d="M 0 6.4767 C 0 2.8886 3.0409 0 6.8182 0 C 10.5955 0 13.6363 2.8886 13.6363 6.4767 C 13.6363 10.0648 10.5955 12.9533 6.8182 12.9533 C 3.0409 12.9533 0 10.0648 0 6.4767 Z" fill="#b1cc33" stroke="none" stroke-linejoin="miter" stroke-linecap="butt" fill-rule="nonzero" stroke-width="2.0833"/></g><g transform="translate(8.1818 26.5181)"><path d="M 0 6.4767 C 0 2.8886 3.0409 0 6.8182 0 C 10.5955 0 13.6363 2.8886 13.6363 6.4767 C 13.6363 10.0648 10.5955 12.9533 6.8182 12.9533 C 3.0409 12.9533 0 10.0648 0 6.4767 Z" fill="#f4aa41" stroke="none" stroke-linejoin="miter" stroke-linecap="butt" fill-rule="nonzero" stroke-width="2.0833"/></g><g transform="translate(8.1818 7.0881)"><path d="M 0 6.4767 C 0 2.8886 3.0409 0 6.8182 0 C 10.5955 0 13.6363 2.8886 13.6363 6.4767 C 13.6363 10.0648 10.5955 12.9533 6.8182 12.9533 C 3.0409 12.9533 0 10.0648 0 6.4767 Z" fill="#ea5a47" stroke="none" stroke-linejoin="miter" stroke-linecap="butt" fill-rule="nonzero" stroke-width="2.0833"/></g><g transform="translate(0 0.2332)"><path d="M 30 9.0673 L 30 55.6995 C 30 60.6865 25.7045 64.7669 20.4545 64.7669 L 9.5454 64.7669 C 4.2955 64.7669 0 60.6865 0 55.6995 L 0 9.0673 C 0 4.0803 4.2955 0 9.5454 0 L 20.4545 0 C 25.7045 0 30 4.0803 30 9.0673 Z" stroke-miterlimit="10" stroke-linecap="butt" fill="none" fill-rule="nonzero" stroke-width="4.1667" stroke-linejoin="round"/></g><g transform="translate(8.1818 44.886)"><path d="M 0 6.4767 C 0 2.8886 3.0409 0 6.8182 0 C 10.5955 0 13.6363 2.8886 13.6363 6.4767 C 13.6363 10.0648 10.5955 12.9533 6.8182 12.9533 C 3.0409 12.9533 0 10.0648 0 6.4767 Z" stroke-linecap="butt" fill="none" fill-rule="nonzero" stroke-width="4.1667" stroke-linejoin="round"/></g><g transform="translate(8.1818 26.7513)"><path d="M 0 6.4767 C 0 2.8886 3.0409 0 6.8182 0 C 10.5955 0 13.6363 2.8886 13.6363 6.4767 C 13.6363 10.0648 10.5955 12.9533 6.8182 12.9533 C 3.0409 12.9533 0 10.0648 0 6.4767 Z" stroke-linecap="butt" fill="none" fill-rule="nonzero" stroke-width="4.1667" stroke-linejoin="round"/></g><g transform="translate(8.1818 7.3212)"><path d="M 0 6.4767 C 0 2.8886 3.0409 0 6.8182 0 C 10.5955 0 13.6363 2.8886 13.6363 6.4767 C 13.6363 10.0648 10.5955 12.9533 6.8182 12.9533 C 3.0409 12.9533 0 10.0648 0 6.4767 Z" stroke-linecap="butt" fill="none" fill-rule="nonzero" stroke-width="4.1667" stroke-linejoin="round"/></g></g></g><g transform="translate(82 27)" stroke-linecap="round" stroke-linejoin="round"><g ><g><path d="M 30 9.0673 L 30 55.6995 C 30 60.6865 25.7045 64.7669 20.4545 64.7669 L 9.5454 64.7669 C 4.2955 64.7669 0 60.6865 0 55.6995 L 0 9.0673 C 0 4.0803 4.2955 0 9.5454 0 L 20.4545 0 C 25.7045 0 30 4.0803 30 9.0673 Z" fill="#d0cfce" stroke="none" stroke-linejoin="miter" stroke-linecap="butt" fill-rule="nonzero" stroke-width="2.0833"/></g><g transform="translate(8.1818 44.6528)"><path d="M 0 6.4767 C 0 2.8886 3.0409 0 6.8182 0 C 10.5955 0 13.6363 2.8886 13.6363 6.4767 C 13.6363 10.0648 10.5955 12.9533 6.8182 12.9533 C 3.0409 12.9533 0 10.0648 0 6.4767 Z" fill="#b1cc33" stroke="none" stroke-linejoin="miter" stroke-linecap="butt" fill-rule="nonzero" stroke-width="2.0833"/></g><g transform="translate(8.1818 26.5181)"><path d="M 0 6.4767 C 0 2.8886 3.0409 0 6.8182 0 C 10.5955 0 13.6363 2.8886 13.6363 6.4767 C 13.6363 10.0648 10.5955 12.9533 6.8182 12.9533 C 3.0409 12.9533 0 10.0648 0 6.4767 Z" fill="#f4aa41" stroke="none" stroke-linejoin="miter" stroke-linecap="butt" fill-rule="nonzero" stroke-width="2.0833"/></g><g transform="translate(8.1818 7.0881)"><path d="M 0 6.4767 C 0 2.8886 3.0409 0 6.8182 0 C 10.5955 0 13.6363 2.8886 13.6363 6.4767 C 13.6363 10.0648 10.5955 12.9533 6.8182 12.9533 C 3.0409 12.9533 0 10.0648 0 6.4767 Z" fill="#ea5a47" stroke="none" stroke-linejoin="miter" stroke-linecap="butt" fill-rule="nonzero" stroke-width="2.0833"/></g><g transform="translate(0 0.2332)"><path d="M 30 9.0673 L 30 55.6995 C 30 60.6865 25.7045 64.7669 20.4545 64.7669 L 9.5454 64.7669 C 4.2955 64.7669 0 60.6865 0 55.6995 L 0 9.0673 C 0 4.0803 4.2955 0 9.5454 0 L 20.4545 0 C 25.7045 0 30 4.0803 30 9.0673 Z" stroke-miterlimit="10" stroke-linecap="butt" fill="none" fill-rule="nonzero" stroke-width="4.1667" stroke-linejoin="round"/></g><g transform="translate(8.1818 44.886)"><path d="M 0 6.4767 C 0 2.8886 3.0409 0 6.8182 0 C 10.5955 0 13.6363 2.8886 13.6363 6.4767 C 13.6363 10.0648 10.5955 12.9533 6.8182 12.9533 C 3.0409 12.9533 0 10.0648 0 6.4767 Z" stroke-linecap="butt" fill="none" fill-rule="nonzero" stroke-width="4.1667" stroke-linejoin="round"/></g><g transform="translate(8.1818 26.7513)"><path d="M 0 6.4767 C 0 2.8886 3.0409 0 6.8182 0 C 10.5955 0 13.6363 2.8886 13.6363 6.4767 C 13.6363 10.0648 10.5955 12.9533 6.8182 12.9533 C 3.0409 12.9533 0 10.0648 0 6.4767 Z" stroke-linecap="butt" fill="none" fill-rule="nonzero" stroke-width="4.1667" stroke-linejoin="round"/></g><g transform="translate(8.1818 7.3212)"><path d="M 0 6.4767 C 0 2.8886 3.0409 0 6.8182 0 C 10.5955 0 13.6363 2.8886 13.6363 6.4767 C 13.6363 10.0648 10.5955 12.9533 6.8182 12.9533 C 3.0409 12.9533 0 10.0648 0 6.4767 Z" stroke-linecap="butt" fill="none" fill-rule="nonzero" stroke-width="4.1667" stroke-linejoin="round"/></g></g></g></g></g><g transform="translate(852.929202907712 113)"><path fill="none" d="M 1e-13 1e-13 L 0.594099998474 22.377000808716" fill-opacity="0.14" stroke-width="2"/><use class="EndArrow.cls" x="0.594720029831" y="22.4" transform="scale(1.25) rotate(178.479152064672 0.594720029831 22.4)" fill="#000000" xlink:href="#thick.end"/></g><g transform="translate(726.804006548032 113.00004893617)"><path fill="none" d="M 5.813799858093 119.278396606445 L 95.35880279541 3.558900117874" fill-opacity="0.14"/><use class="BeginArrow.cls" x="0" y="126.791702270508" transform="scale(1) rotate(217.733056294889 0 126.791702270508)" fill="#000000" xlink:href="#thin.end"/><use class="EndArrow.cls" x="98.112701416016" y="0" transform="scale(1) rotate(37.733097554304 98.112701416016 0)" fill="#000000" xlink:href="#thick.end"/></g><g transform="translate(742.891151917082 234.957716365623)"><path fill="none" d="M 8.196000099182 16.945899963379 L 33.226501464844 2.275399923325" fill-opacity="0.14"/><use class="BeginArrow.cls" x="0" y="21.749599456787" transform="scale(1) rotate(239.62527385733 0 21.749599456787)" fill="#000000" xlink:href="#thin.end"/><use class="EndArrow.cls" x="37.108798980713" y="0" transform="scale(1) rotate(59.625292792181 37.108798980713 0)" fill="#000000" xlink:href="#thick.end"/></g><g transform="translate(747.35527444769 310.816124600297)"><path fill="none" d="M 8.837599754333 3.485300064087 L 39.382301330566 15.531100273132" fill-opacity="0.14"/><use class="BeginArrow.cls" x="0" y="0" transform="scale(1) rotate(291.522656953291 0 0)" fill="#000000" xlink:href="#thin.end"/><use class="EndArrow.cls" x="43.568500518799" y="17.181999206543" transform="scale(1) rotate(111.522656953291 43.568500518799 17.181999206543)" fill="#000000" xlink:href="#thick.end"/></g><g transform="translate(695.473218222326 347.732045455588)"><path fill="none" d="M 1.181599974632 11.816100120544 L 6.053599834442 60.535701751709" fill-opacity="0.14" stroke-width="2"/><use class="BeginArrow.cls" x="0" y="0" transform="scale(1.25) rotate(354.289387724149 0 0)" fill="#000000" xlink:href="#thin.end"/><use class="EndArrow.cls" x="5.290639877319" y="52.906237792969" transform="scale(1.25) rotate(174.289390333919 5.290639877319 52.906237792969)" fill="#000000" xlink:href="#thick.end"/></g><g transform="translate(410 506)"><path fill="none" d="M 288.748199462891 24.174800872803 Q 276.526604077561 90 145 90 Q 5.543726734499 90 0.211799994111 6.745500087738" fill-opacity="0.14" stroke-dasharray="9 12" stroke-width="3"/><use class="BeginArrow.cls" x="193.333333333333" y="6.666666666667" transform="scale(1.5) rotate(5.335486370332 193.333333333333 6.666666666667)" fill="#000000" xlink:href="#thin.end"/><use class="EndArrow.cls" x="0" y="0" transform="scale(1.5) rotate(357.994111704467 0 0)" fill="#000000" xlink:href="#thick.end"/></g><g transform="translate(425 196)"><path fill="none" d="M 11.839799880981 54.218101501465 C 60.298344643569 47.516797100214 64.230919358032 0 120 0 C 135 0 135 85 150 85 C 185.528114796884 85 187.396311166553 53.584076134599 219.384506225586 50.280200958252" fill-opacity="0.14" stroke-width="2"/><use class="BeginArrow.cls" x="0" y="44" transform="scale(1.25) rotate(266.005013832757 0 44)" fill="#000000" xlink:href="#thin.end"/><use class="EndArrow.cls" x="180" y="40" transform="scale(1.25) rotate(86.803513125882 180 40)" fill="#000000" xlink:href="#thick.end"/></g><g transform="translate(995 6)"><rect x="0" y="0" width="170" height="40" stroke="none"/><g transform="translate(-10.625 0)" class="Text.cls"><rect x="0" y="0" width="180.625" height="40" fill="none" stroke="none"/><text fill="#000000" fill-opacity="1" text-anchor="end"><tspan x="178.625" y="16.22">Procedural "Blue" Thread</tspan><tspan x="178.625" y="33.02">Stateful (**)</tspan></text></g></g><g transform="translate(1000 246)"><g ><g><rect x="0" y="0" height="70" stroke-width="1" width="150"/></g><g transform="translate(0 20)"><path d="M 1e-13 1e-13 L 150 0" fill="#ffccff" stroke-width="1"/></g></g><g class="Text.cls"><rect x="0" y="0" width="150" height="70" fill="none" stroke="none"/><text fill="#000000" fill-opacity="1"><tspan x="75" y="16">RPG Program A</tspan></text></g></g><g transform="translate(1002 373)"><g ><g><rect height="70" stroke-width="1" width="150" x="0" y="0"/></g><g transform="translate(0 20)"><path d="M 1e-13 1e-13 L 150 0" fill="#ffccff" stroke-width="1"/></g></g><g class="Text.cls"><rect x="0" y="0" width="150" height="70" fill="none" stroke="none"/><text fill="#000000" fill-opacity="1"><tspan x="75" y="16">RPG Program B</tspan></text></g></g><g transform="translate(790 693)"><rect x="0" y="0" width="357" height="50" fill="none" stroke="none"/><g class="Text.cls"><rect x="0" y="0" width="357" height="50" fill="none" stroke="none"/><text fill="#a2a2a2" fill-opacity="1"><tspan x="178.5" y="29.62">** Thread sleeps while waiting for page to be posted.</tspan></text></g></g><g transform="translate(796.622807123688 419.1486621695)"><path fill="none" d="M 195.980499267578 1.396800041199 L 4.451099872589 29.867399215698" fill-opacity="0.14"/><use class="BeginArrow.cls" x="205.377197265625" y="0" transform="scale(1) rotate(81.545020235356 205.377197265625 0)" fill="#000000" xlink:href="#thin.end"/><use class="EndArrow.cls" x="0" y="30.528999328613" transform="scale(1) rotate(261.544981014268 0 30.528999328613)" fill="#000000" xlink:href="#thick.end"/></g><g transform="translate(925 61)"><path fill="none" d="M 0 2 L 1e-13 1e-13 L 155 0 L 155 175.5" fill-opacity="0.14"/><use class="EndArrow.cls" x="155" y="180" transform="scale(1) rotate(180 155 180)" fill="#000000" xlink:href="#thick.end"/></g><g transform="translate(1010 406)"><rect x="0" y="0" width="140" height="30" fill="none" stroke="none"/><g transform="translate(0 -5)" class="Text.cls"><rect x="0" y="0" width="140" height="30" fill="none" stroke="none"/><text fill="#000000" fill-opacity="1"><tspan x="70" y="25.62">Workstation File D1</tspan></text></g></g><g transform="translate(1010 526)"><rect x="0" y="0" width="140" height="30" fill="none" stroke="none"/><g transform="translate(0 -5)" class="Text.cls"><rect x="0" y="0" width="140" height="30" fill="none" stroke="none"/><text fill="#000000" fill-opacity="1"><tspan x="70" y="25.62">Workstation File D2</tspan></text></g></g><g transform="translate(1075.551171653543 316)"><path fill="none" d="M 1e-13 1e-13 L 0.748000025749 47.501201629639" fill-opacity="0.14"/><use class="EndArrow.cls" x="0.897599995136" y="57" transform="scale(1) rotate(179.097816639149 0.897599995136 57)" fill="#000000" xlink:href="#thin.end"/></g><g transform="translate(1075.569150469986 443)"><path fill="none" d="M 0.8617 0 L 0.154400005937 43.501300811768" fill-opacity="0.14"/><use class="EndArrow.cls" x="0" y="53" transform="scale(1) rotate(180.931462597545 0 53)" fill="#000000" xlink:href="#thin.end"/></g><g transform="translate(935 286)"><path fill="none" d="M 8.364500045776 30.496000289917 L 61.037899017334 2.133399963379" fill-opacity="0.14"/><use class="BeginArrow.cls" x="0" y="35" transform="scale(1) rotate(241.699238312732 0 35)" fill="#000000" xlink:href="#thin.end"/><use class="EndArrow.cls" x="65" y="0" transform="scale(1) rotate(61.699242383598 65 0)" fill="#000000" xlink:href="#thick.end"/></g><g transform="translate(0 739.5)"><rect x="0" y="0" width="515" height="40" fill="none" stroke="none"/><g class="Text.cls"><rect x="0" y="0" width="515" height="40" fill="none" stroke="none"/><text fill="#000000" fill-opacity="1" font-size="24px"><tspan x="257.5" y="27.92">Presentation Layer</tspan></text></g></g><g transform="translate(570 744.5)"><rect x="0" y="0" width="600" height="40" fill="none" stroke="none"/><g class="Text.cls"><rect x="0" y="0" width="600" height="40" fill="none" stroke="none"/><text fill="#000000" fill-opacity="1" font-size="24px"><tspan x="300" y="27.92">Business Logic Layer</tspan></text></g></g></svg>