<svg xmlns="http://www.w3.org/2000/svg" xmlns:xlink="http://www.w3.org/1999/xlink" xmlns:v="http://vecta.io" width="256" height="561" viewBox="0 0 256 561"><style><![CDATA[svg{stroke:#000;stroke-linecap:round;stroke-linejoin:round;fill:#fff;fill-rule:evenodd;font-family:Roboto;font-size:14px;text-anchor:middle}svg text{paint-order:stroke;white-space:pre}svg .Text\.cls{stroke:none}]]></style><defs><style>@import url("https://fonts.googleapis.com/css?family=Roboto:400,400i,700,700i");</style><g id="thick.end"><path d="M 0 0 L 4 5 L -4 5 Z" stroke="none"/></g></defs><g transform="translate(0 519.5)"><rect x="0" y="0" width="255" height="40" fill="none" stroke="none"/><g class="Text.cls"><rect x="0" y="0" width="255" height="40" fill="none" stroke="none"/><text fill="#000000" fill-opacity="1" text-anchor="start" font-size="11px"><tspan x="2" y="23.63">* Value depends on the field position (or keyword)</tspan></text></g></g><g transform="translate(10.5 0.5)"><g ><g transform="translate(45 0)"><rect fill="#eeffcc" height="30" rx="15" width="150" x="0" y="0"/><g class="Text.cls"><rect x="0" y="0" width="150" height="30" fill="none" stroke="none"/><text fill="#000000" fill-opacity="1"><tspan x="75" y="19.62">Start</tspan></text></g></g><g transform="translate(45 145)"><path d="M 75 0 L 0 40 L 75 80 L 150 40 Z" fill="#ffeecc"/><g transform="translate(37.5 20)" class="Text.cls"><rect x="0" y="0" width="75" height="40" fill="none" stroke="none"/><text fill="#000000" fill-opacity="1"><tspan x="37.5" y="16.22">Is </tspan><tspan x="37.5" y="33.02">*PARMS?</tspan></text></g></g><g transform="translate(45 70)"><rect fill="#ccffff" height="50" width="150" x="0" y="0"/><g class="Text.cls"><rect x="0" y="0" width="150" height="50" fill="none" stroke="none"/><text fill="#000000" fill-opacity="1"><tspan x="75" y="29.62">Declare DS field</tspan></text></g></g><g transform="translate(45 265)"><rect fill="#ccffff" height="50" width="150" x="0" y="0"/><g class="Text.cls"><rect x="0" y="0" width="150" height="50" fill="none" stroke="none"/><text fill="#000000" fill-opacity="1"><tspan x="75" y="21.22">Populate in *Entry</tspan><tspan x="75" y="38.02">field = *Parms</tspan></text></g></g><g transform="translate(120 30)"><path fill="none" d="M 1e-13 1e-13 L 0 35.5" fill-opacity="0.14"/><use class="EndArrow.cls" x="0" y="40" transform="scale(1) rotate(180.000002504478 0 40)" fill="#000000" xlink:href="#thick.end"/></g><g transform="translate(120 120)"><path fill="none" d="M 1e-13 1e-13 L 0 20.5" fill-opacity="0.14"/><use class="EndArrow.cls" x="0" y="25" transform="scale(1) rotate(180.000002504478 0 25)" fill="#000000" xlink:href="#thick.end"/></g><g transform="translate(120 225)"><path fill="none" d="M 1e-13 1e-13 L 0 35.5" fill-opacity="0.14"/><use class="EndArrow.cls" x="0" y="40" transform="scale(1) rotate(180.000002504478 0 40)" fill="#000000" xlink:href="#thick.end"/></g><g transform="translate(105 225)"><rect x="0" y="0" width="65" height="35" fill="none" stroke="none"/><g class="Text.cls"><rect x="0" y="0" width="65" height="35" fill="none" stroke="none"/><text fill="#000000" fill-opacity="1"><tspan x="32.5" y="22.12">Yes</tspan></text></g></g><g transform="translate(45 400)"><rect fill="#ccffff" height="50" width="150" x="0" y="0"/><g class="Text.cls"><rect x="0" y="0" width="150" height="50" fill="none" stroke="none"/><text fill="#000000" fill-opacity="1"><tspan x="75" y="21.22">Populate in constructor</tspan><tspan x="75" y="38.02">field = value(*)</tspan></text></g></g><g transform="translate(100 335)"><ellipse cx="20" cy="20" fill="#ccffd5" rx="20" ry="20"/></g><g transform="translate(120 375)"><path fill="none" d="M 1e-13 1e-13 L 0 20.5" fill-opacity="0.14"/><use class="EndArrow.cls" x="0" y="25" transform="scale(1) rotate(180.000002504478 0 25)" fill="#000000" xlink:href="#thick.end"/></g><g transform="translate(7.5 185)"><path fill="none" d="M 37.5 0 L 1e-13 1e-13 L 0 170 L 88 170" fill-opacity="0.14"/><use class="EndArrow.cls" x="92.5" y="170" transform="scale(1) rotate(90 92.5 170)" fill="#000000" xlink:href="#thick.end"/></g><g transform="translate(0 150)"><rect x="0" y="0" width="50" height="35" fill="none" stroke="none"/><g class="Text.cls"><rect x="0" y="0" width="50" height="35" fill="none" stroke="none"/><text fill="#000000" fill-opacity="1"><tspan x="25" y="22.12">No</tspan></text></g></g><g transform="translate(120 315)"><path fill="none" d="M 1e-13 1e-13 L 0 15.5" fill-opacity="0.14"/><use class="EndArrow.cls" x="0" y="20" transform="scale(1) rotate(180.000002504478 0 20)" fill="#000000" xlink:href="#thick.end"/></g><g transform="translate(44.5 479)"><rect fill="#eeffcc" height="30" rx="15" width="150" x="0" y="0"/><g class="Text.cls"><rect x="0" y="0" width="150" height="30" fill="none" stroke="none"/><text fill="#000000" fill-opacity="1"><tspan x="75" y="19.62">End</tspan></text></g></g><g transform="translate(119.6087 450)"><path fill="none" d="M 0.2101 0 L 0.032600000501 24.500099182129" fill-opacity="0.14"/><use class="EndArrow.cls" x="0" y="29" transform="scale(1) rotate(180.415093640154 0 29)" fill="#000000" xlink:href="#thick.end"/></g></g></g></svg>